<?xml version="1.0" encoding="utf-8"?>
<!-- Generator: Adobe Illustrator 27.0.0, SVG Export Plug-In . SVG Version: 6.00 Build 0)  -->
<svg version="1.1" id="Layer_1" xmlns="http://www.w3.org/2000/svg" xmlns:xlink="http://www.w3.org/1999/xlink" x="0px" y="0px"
	 viewBox="0 0 800 500" style="enable-background:new 0 0 800 500;" xml:space="preserve">
<style type="text/css">
	.st0{fill:url(#SVGID_1_);}
	.st1{fill:url(#SVGID_00000044895753277513394790000002848206974603557276_);}
	.st2{fill:url(#SVGID_00000078736975882464333290000006824663918983833743_);}
	.st3{fill:url(#SVGID_00000086667146515464038240000015514032588660519579_);}
	.st4{fill:url(#SVGID_00000078040692964318282950000016255347921203060403_);}
	.st5{fill:url(#SVGID_00000157293382125104521750000007931440919336640419_);}
	.st6{fill:url(#SVGID_00000026122612631724225960000013975519459514416819_);}
	.st7{fill:url(#SVGID_00000132078061313784661110000013110672540447244934_);}
	.st8{fill:url(#SVGID_00000118366666521921584070000001381882277467905950_);}
	.st9{fill:url(#SVGID_00000137099299399264381630000004466621743053887934_);}
	.st10{fill:url(#SVGID_00000013156969581261030960000012396661895528056748_);}
	.st11{fill:url(#SVGID_00000159464424542417298140000010890188713961510529_);}
	.st12{fill:url(#SVGID_00000004511940704424000400000010733944376416082602_);}
	.st13{fill:url(#SVGID_00000027599293276536178080000015969505045153974974_);}
	.st14{fill:url(#SVGID_00000027584466982761337780000009820740118919125892_);}
	.st15{fill:url(#SVGID_00000164489384349695129540000001714113761437051547_);}
	.st16{fill:url(#SVGID_00000029024866037082586330000003764379292628117947_);}
	.st17{fill:url(#SVGID_00000163775497540389634830000005296325011665356680_);}
	.st18{fill:url(#SVGID_00000063627652148814717710000007479314676367441062_);}
	.st19{fill:url(#SVGID_00000121973959043146003690000002880457727600099763_);}
	.st20{fill:url(#SVGID_00000034081265975156708640000014418477984781564050_);}
	.st21{fill:url(#SVGID_00000049202373134176792730000015846672293087682734_);}
	.st22{fill:url(#SVGID_00000052106393307111063930000015113747487994148480_);}
	.st23{fill:url(#SVGID_00000075134270208196711470000017930213699318800052_);}
	.st24{fill:url(#SVGID_00000140721813316739234170000015313700048779428776_);}
	.st25{fill:url(#SVGID_00000178890522844104527110000006109279957159619476_);}
	.st26{fill:url(#SVGID_00000119802998524500386230000008728623717114691517_);}
	.st27{fill:url(#SVGID_00000079476945340994609720000011064894837190055043_);}
	.st28{fill:url(#SVGID_00000157284891730123727300000012268895166348086949_);}
	.st29{fill:url(#SVGID_00000138565958115525026870000017814334911074727082_);}
	.st30{fill:url(#SVGID_00000057107903100238933670000012484949726763262619_);}
	.st31{fill:url(#SVGID_00000049183440455678649890000001633349097322036893_);}
	.st32{fill:url(#SVGID_00000145744642960485372050000001640317505867885961_);}
	.st33{fill:url(#SVGID_00000096045555396023198060000001969615599491820173_);}
	.st34{fill:url(#SVGID_00000008862073292017403370000009166195603263730106_);}
	.st35{fill:url(#SVGID_00000091730796221717513440000010150615488522940340_);}
	.st36{fill:url(#SVGID_00000119080757329484924530000017422167269942598549_);}
	.st37{fill:url(#SVGID_00000050647182477991195420000004242806573667301801_);}
	.st38{fill:#FFFFFF;}
	.st39{fill:url(#SVGID_00000057830126606475203460000011551960095813896378_);}
	.st40{fill:url(#SVGID_00000064344260054925820580000004988808680302032272_);}
	.st41{fill:url(#SVGID_00000073699805008721787160000002270241676390847635_);}
	.st42{fill:url(#SVGID_00000179617578742773222320000011979724599827200443_);}
	.st43{fill:url(#SVGID_00000059996978958119187180000016057747945155935657_);}
	.st44{fill:url(#SVGID_00000133513132980002527250000011726382675666614686_);}
	.st45{fill:url(#SVGID_00000050664296055210370300000008036308841212155320_);}
	.st46{fill:url(#SVGID_00000152228888621956945680000008514115415394760116_);}
	.st47{fill:url(#SVGID_00000157303206283993587340000006617963956469384066_);}
	.st48{fill:url(#SVGID_00000111909823897220896050000015758594946252474279_);}
	.st49{fill:url(#SVGID_00000182513354997192481680000011114431072717077668_);}
	.st50{fill:url(#SVGID_00000007387397537385912230000003398384297937295760_);}
	.st51{fill:url(#SVGID_00000033333123139456995500000016143834853101628348_);}
	.st52{fill:url(#SVGID_00000016768794367895915440000015065652032987493789_);}
	.st53{fill:url(#SVGID_00000071537951173914464190000011341252308030246532_);}
	.st54{fill:url(#SVGID_00000050649629747710044400000004606517567858466186_);}
	.st55{fill:url(#SVGID_00000098200273400106367240000003040861650058342287_);}
	.st56{fill:url(#SVGID_00000164501051342974348280000015145619815444598713_);}
	.st57{fill:url(#SVGID_00000096760932184216769900000007945247768873178783_);}
	.st58{fill:url(#SVGID_00000096040113243713855420000011872360394811640495_);}
	.st59{fill:url(#SVGID_00000080895023106467468860000011432161702104181889_);}
	.st60{fill:url(#SVGID_00000047043062392730565600000002658814960030466954_);}
	.st61{fill:url(#SVGID_00000095327351734048009100000008566382723550556810_);}
	.st62{fill:url(#SVGID_00000027591791375475743120000001859096441456434857_);}
	.st63{fill:url(#SVGID_00000166656812876602066130000011753962208420333498_);}
	.st64{fill:url(#SVGID_00000112617410436020755790000003174932901196572836_);}
	.st65{fill:url(#SVGID_00000081634226931165057270000016219048125241228692_);}
	.st66{fill:url(#SVGID_00000115500905332356622560000010546345402713158559_);}
	.st67{fill:url(#SVGID_00000087372977225718646430000008218609658976556468_);}
	.st68{fill:url(#SVGID_00000171709665287723239220000005816808745967767979_);}
	.st69{fill:url(#SVGID_00000011014315344186041110000013914429498828882095_);}
	.st70{fill:url(#SVGID_00000149366486777587485240000007004529504549156495_);}
	.st71{fill:url(#SVGID_00000092449907129894614180000007982589263826972591_);}
	.st72{fill:url(#SVGID_00000010302657523450718180000007830259513191417488_);}
	.st73{fill:url(#SVGID_00000177455515352682235760000016284099673266022572_);}
	.st74{fill:url(#SVGID_00000070105700552321723730000015493925020917584013_);}
	.st75{fill:url(#SVGID_00000005967986428281635890000000839949498745933461_);}
	.st76{fill:url(#SVGID_00000141421053861557993940000003567387750812009386_);}
	.st77{fill:url(#SVGID_00000179646820810909323360000014956779707279359883_);}
	.st78{fill:url(#SVGID_00000085241066556635373370000004076643420286166952_);}
	.st79{fill:url(#SVGID_00000182525749389958812160000018000152373393701535_);}
</style>
<g>
	<g>
		<linearGradient id="SVGID_1_" gradientUnits="userSpaceOnUse" x1="417.4714" y1="298.1561" x2="17.0569" y2="388.1369">
			<stop  offset="0" style="stop-color:#58595B"/>
			<stop  offset="0.8026" style="stop-color:#000000"/>
		</linearGradient>
		<path class="st0" d="M83.9,336.5h24.6l33,60.2h-20l-6-10.7H76.6l-5.8,10.7H50L83.9,336.5z M109,373.5l-13-24l-12.8,24H109z"/>
		
			<linearGradient id="SVGID_00000011734332501394628320000015725709591083116206_" gradientUnits="userSpaceOnUse" x1="420.7734" y1="312.8499" x2="20.3589" y2="402.8307">
			<stop  offset="0" style="stop-color:#58595B"/>
			<stop  offset="0.8026" style="stop-color:#000000"/>
		</linearGradient>
		<path style="fill:url(#SVGID_00000011734332501394628320000015725709591083116206_);" d="M149.8,336.5h52
			c12.7,0,18.7,1.4,22.8,5.6c3.3,3.3,4.7,7,5.3,14.7c0.2,2.8,0.4,7,0.4,9.8c0,5.4-0.4,11.6-0.9,15.1c-1,7.2-6.1,12.8-12.6,14.1
			c-3.4,0.7-6.1,0.9-12.6,0.9h-54.5V336.5z M198.8,382.4c5,0,5.3,0,7.5-0.7c4.4-1.4,5.6-4.5,5.6-14.9c0-12.6-2.2-15.3-12.7-15.3
			h-31.1v30.9H198.8z"/>
		
			<linearGradient id="SVGID_00000133501256892567760300000006963965593129562541_" gradientUnits="userSpaceOnUse" x1="426.455" y1="338.1331" x2="26.0405" y2="428.114">
			<stop  offset="0" style="stop-color:#58595B"/>
			<stop  offset="0.8026" style="stop-color:#000000"/>
		</linearGradient>
		<path style="fill:url(#SVGID_00000133501256892567760300000006963965593129562541_);" d="M270.7,336.5h24.6l33,60.2h-20l-6-10.7
			h-38.8l-5.8,10.7h-20.8L270.7,336.5z M295.9,373.5l-13-24l-12.8,24H295.9z"/>
		
			<linearGradient id="SVGID_00000098210163178744347050000015075190650110415520_" gradientUnits="userSpaceOnUse" x1="430.0245" y1="354.0175" x2="29.61" y2="443.9983">
			<stop  offset="0" style="stop-color:#58595B"/>
			<stop  offset="0.8026" style="stop-color:#000000"/>
		</linearGradient>
		<path style="fill:url(#SVGID_00000098210163178744347050000015075190650110415520_);" d="M354.2,377.5c0.2,4.2,0.6,5.1,2.8,6
			c1.4,0.5,6.5,0.9,12.3,0.9c21.2,0,23.8-0.6,23.8-5.6c0-2.4-1.2-4.2-3.1-4.9c-2-0.6-2-0.6-11.5-0.7h-16.6
			c-11.1,0-15.7-0.6-19.6-2.6c-4.3-2.3-6.3-7-6.3-15.3c0-10.8,3.1-15.4,11.7-17.5c4.9-1.3,11.9-1.7,25.1-1.7c21.1,0,26,0.5,30.3,3.3
			c4.2,2.8,5.5,6.5,5.5,15.5h-17.9c0-5.2-1.8-6-13.6-6c-5.9,0-13.7,0.2-16.6,0.4c-4.9,0.4-6.5,1.6-6.5,5.1c0,2.5,1.3,4.2,3.9,4.8
			c1.1,0.3,1.4,0.4,7.4,0.5h17.1c1.6,0,9.8,0.3,12.8,0.5c11.5,0.5,16,5.6,16,17.7c0,11.1-3.3,16-12.1,17.9c-4.5,1-13.5,1.5-26.6,1.5
			c-20.9,0-25.5-0.5-30.8-3.2c-3.7-1.8-5.6-6.4-5.6-13.5c0-0.5,0-1.7,0.1-3H354.2z"/>
		
			<linearGradient id="SVGID_00000115498752159558227290000011959896454273604231_" gradientUnits="userSpaceOnUse" x1="555.8073" y1="209.5444" x2="446.7055" y2="391.7555">
			<stop  offset="0" style="stop-color:#EF4136"/>
			<stop  offset="0.8514" style="stop-color:#BE1E2D"/>
		</linearGradient>
		<path style="fill:url(#SVGID_00000115498752159558227290000011959896454273604231_);" d="M442.4,377.5c0.2,4.2,0.6,5.1,2.8,6
			c1.4,0.5,6.5,0.9,12.3,0.9c21.2,0,23.8-0.6,23.8-5.6c0-2.4-1.2-4.2-3.1-4.9c-2-0.6-2-0.6-11.5-0.7H450c-11.1,0-15.7-0.6-19.6-2.6
			c-4.3-2.3-6.3-7-6.3-15.3c0-10.8,3.1-15.4,11.7-17.5c4.9-1.3,11.9-1.7,25.1-1.7c21.1,0,26,0.5,30.3,3.3c4.2,2.8,5.5,6.5,5.5,15.5
			h-17.9c0-5.2-1.8-6-13.6-6c-5.9,0-13.7,0.2-16.6,0.4c-4.9,0.4-6.5,1.6-6.5,5.1c0,2.5,1.3,4.2,3.9,4.8c1.1,0.3,1.4,0.4,7.4,0.5
			h17.1c1.6,0,9.8,0.3,12.8,0.5c11.5,0.5,16,5.6,16,17.7c0,11.1-3.3,16-12.1,17.9c-4.5,1-13.5,1.5-26.6,1.5
			c-20.9,0-25.5-0.5-30.8-3.2c-3.7-1.8-5.6-6.4-5.6-13.5c0-0.5,0-1.7,0.1-3H442.4z"/>
		
			<linearGradient id="SVGID_00000054949694194378414930000017713827396254810510_" gradientUnits="userSpaceOnUse" x1="634.8613" y1="256.8793" x2="525.7596" y2="439.0904">
			<stop  offset="0" style="stop-color:#EF4136"/>
			<stop  offset="0.8514" style="stop-color:#BE1E2D"/>
		</linearGradient>
		<path style="fill:url(#SVGID_00000054949694194378414930000017713827396254810510_);" d="M540.4,336.5h24.6l33,60.2h-20l-6-10.7
			h-38.8l-5.8,10.7h-20.8L540.4,336.5z M565.5,373.5l-13-24l-12.8,24H565.5z"/>
		
			<linearGradient id="SVGID_00000113318514609106153080000016854977203686571413_" gradientUnits="userSpaceOnUse" x1="680.2779" y1="284.0732" x2="571.1762" y2="466.2842">
			<stop  offset="0" style="stop-color:#EF4136"/>
			<stop  offset="0.8514" style="stop-color:#BE1E2D"/>
		</linearGradient>
		<path style="fill:url(#SVGID_00000113318514609106153080000016854977203686571413_);" d="M606.3,336.5h63.9v13.6h-45.7v12h43.3
			v13.6h-43.3v21h-18.2V336.5z"/>
		
			<linearGradient id="SVGID_00000024717719782271803930000003285948942780461230_" gradientUnits="userSpaceOnUse" x1="743.2042" y1="321.7512" x2="634.1024" y2="503.9623">
			<stop  offset="0" style="stop-color:#EF4136"/>
			<stop  offset="0.8514" style="stop-color:#BE1E2D"/>
		</linearGradient>
		<path style="fill:url(#SVGID_00000024717719782271803930000003285948942780461230_);" d="M749.4,336.5v13.6h-48.7v10.4h45.9v11.9
			h-45.9v10.7H750v13.6h-67.4v-60.2H749.4z"/>
	</g>
	
		<linearGradient id="SVGID_00000036951122270624397800000008205021969062389409_" gradientUnits="userSpaceOnUse" x1="132.0998" y1="299.3025" x2="158.5503" y2="534.418">
		<stop  offset="0" style="stop-color:#58595B"/>
		<stop  offset="0.8026" style="stop-color:#000000"/>
	</linearGradient>
	<path style="fill:url(#SVGID_00000036951122270624397800000008205021969062389409_);" d="M154.8,426.1c-0.4-0.5-1-0.8-1.7-1.1
		c-0.7-0.2-1.6-0.3-2.7-0.3h-6.2c-0.6,0-1-0.1-1.3-0.4c-0.2-0.3-0.4-0.7-0.4-1.3c0-0.6,0.1-1.1,0.4-1.3c0.2-0.3,0.7-0.4,1.3-0.4
		h11.3V417H143c-1.1,0-2.1,0.1-2.8,0.4c-0.7,0.2-1.3,0.6-1.7,1.1c-0.4,0.5-0.7,1.1-0.9,1.8c-0.2,0.7-0.3,1.5-0.3,2.5
		c0,1,0.1,1.8,0.3,2.6c0.2,0.7,0.5,1.3,0.9,1.8c0.4,0.5,1,0.8,1.8,1.1c0.7,0.2,1.6,0.4,2.7,0.4h6.3c0.6,0,1,0.1,1.2,0.3
		c0.3,0.2,0.4,0.7,0.4,1.3c0,0.6-0.1,1.1-0.4,1.4c-0.2,0.3-0.7,0.4-1.2,0.4h-11.8v4.3h12.8c1.1,0,2-0.1,2.7-0.4
		c0.7-0.2,1.3-0.6,1.7-1.1c0.4-0.5,0.7-1.1,0.9-1.8c0.2-0.7,0.3-1.6,0.3-2.5s-0.1-1.8-0.3-2.5C155.5,427.2,155.2,426.6,154.8,426.1z
		"/>
	
		<linearGradient id="SVGID_00000018941438439885503700000017653080433541777815_" gradientUnits="userSpaceOnUse" x1="155.0216" y1="296.7238" x2="181.4721" y2="531.8393">
		<stop  offset="0" style="stop-color:#58595B"/>
		<stop  offset="0.8026" style="stop-color:#000000"/>
	</linearGradient>
	<path style="fill:url(#SVGID_00000018941438439885503700000017653080433541777815_);" d="M167.9,417l-9.5,19.3h5.4l1.8-3.8H176
		l1.8,3.8h5.2l-9.5-19.3H167.9z M167.5,428.6l3.3-7l3.3,7H167.5z"/>
	
		<linearGradient id="SVGID_00000065780124782270591610000018142304797267742594_" gradientUnits="userSpaceOnUse" x1="180.6636" y1="293.8391" x2="207.1141" y2="528.9545">
		<stop  offset="0" style="stop-color:#58595B"/>
		<stop  offset="0.8026" style="stop-color:#000000"/>
	</linearGradient>
	<polygon style="fill:url(#SVGID_00000065780124782270591610000018142304797267742594_);" points="187,436.3 192.2,436.3 192.2,429 
		204.2,429 204.2,424.8 192.2,424.8 192.2,421.2 204.2,421.2 204.2,417 187,417 	"/>
	
		<linearGradient id="SVGID_00000022552920665259436200000018118370176120486035_" gradientUnits="userSpaceOnUse" x1="202.7934" y1="291.3495" x2="229.2439" y2="526.465">
		<stop  offset="0" style="stop-color:#58595B"/>
		<stop  offset="0.8026" style="stop-color:#000000"/>
	</linearGradient>
	<polygon style="fill:url(#SVGID_00000022552920665259436200000018118370176120486035_);" points="214.3,428.5 226.9,428.5 
		226.9,424.8 214.3,424.8 214.3,421.2 226.9,421.2 226.9,417 209.1,417 209.1,436.3 227,436.3 227,432.1 214.3,432.1 	"/>
	
		<linearGradient id="SVGID_00000112627731502978697730000000316045782163080104_" gradientUnits="userSpaceOnUse" x1="225.6081" y1="288.7828" x2="252.0585" y2="523.8983">
		<stop  offset="0" style="stop-color:#58595B"/>
		<stop  offset="0.8026" style="stop-color:#000000"/>
	</linearGradient>
	<polygon style="fill:url(#SVGID_00000112627731502978697730000000316045782163080104_);" points="230.8,421.2 237.7,421.2 
		237.7,436.3 242.9,436.3 242.9,421.2 249.7,421.2 249.7,417 230.8,417 	"/>
	
		<linearGradient id="SVGID_00000147927435161525721760000003683605503247908781_" gradientUnits="userSpaceOnUse" x1="248.4775" y1="286.21" x2="274.928" y2="521.3255">
		<stop  offset="0" style="stop-color:#58595B"/>
		<stop  offset="0.8026" style="stop-color:#000000"/>
	</linearGradient>
	<polygon style="fill:url(#SVGID_00000147927435161525721760000003683605503247908781_);" points="263.2,423.7 258.1,417 252.5,417 
		260.5,427.8 260.5,436.3 265.7,436.3 265.7,427.8 273.9,417 268.3,417 	"/>
	
		<linearGradient id="SVGID_00000121981209366791296820000003867562410023746967_" gradientUnits="userSpaceOnUse" x1="301.1324" y1="280.2864" x2="327.5829" y2="515.4018">
		<stop  offset="0" style="stop-color:#58595B"/>
		<stop  offset="0.8026" style="stop-color:#000000"/>
	</linearGradient>
	<path style="fill:url(#SVGID_00000121981209366791296820000003867562410023746967_);" d="M326,426.1c-0.4-0.5-1-0.8-1.7-1.1
		c-0.7-0.2-1.6-0.3-2.7-0.3h-6.2c-0.6,0-1-0.1-1.3-0.4c-0.2-0.3-0.4-0.7-0.4-1.3c0-0.6,0.1-1.1,0.4-1.3c0.2-0.3,0.7-0.4,1.3-0.4
		h11.3V417h-12.3c-1.1,0-2.1,0.1-2.8,0.4c-0.7,0.2-1.3,0.6-1.7,1.1c-0.4,0.5-0.7,1.1-0.9,1.8c-0.2,0.7-0.3,1.5-0.3,2.5
		c0,1,0.1,1.8,0.3,2.6c0.2,0.7,0.5,1.3,0.9,1.8c0.4,0.5,1,0.8,1.8,1.1c0.7,0.2,1.6,0.4,2.7,0.4h6.3c0.6,0,1,0.1,1.2,0.3
		c0.3,0.2,0.4,0.7,0.4,1.3c0,0.6-0.1,1.1-0.4,1.4c-0.2,0.3-0.7,0.4-1.2,0.4h-11.8v4.3h12.8c1.1,0,2-0.1,2.7-0.4
		c0.7-0.2,1.3-0.6,1.7-1.1c0.4-0.5,0.7-1.1,0.9-1.8c0.2-0.7,0.3-1.6,0.3-2.5s-0.1-1.8-0.3-2.5C326.7,427.2,326.4,426.6,326,426.1z"
		/>
	
		<linearGradient id="SVGID_00000094584001970835409510000006773608394424032128_" gradientUnits="userSpaceOnUse" x1="323.6588" y1="277.7521" x2="350.1093" y2="512.8676">
		<stop  offset="0" style="stop-color:#58595B"/>
		<stop  offset="0.8026" style="stop-color:#000000"/>
	</linearGradient>
	<path style="fill:url(#SVGID_00000094584001970835409510000006773608394424032128_);" d="M336,417.4c-1.1,0.3-2,0.7-2.7,1.5
		c-0.7,0.7-1.2,1.7-1.6,2.9c-0.4,1.3-0.5,2.9-0.5,4.9c0,2,0.2,3.6,0.5,4.9c0.4,1.3,0.9,2.2,1.6,2.9c0.7,0.7,1.6,1.2,2.7,1.4
		c1.1,0.3,2.3,0.4,3.8,0.4h9V432h-9c-0.6,0-1.2-0.1-1.6-0.2s-0.8-0.4-1.1-0.8c-0.3-0.4-0.5-0.9-0.6-1.7c-0.1-0.7-0.2-1.6-0.2-2.7
		c0-1.1,0.1-2,0.2-2.7c0.1-0.7,0.3-1.3,0.6-1.7c0.3-0.4,0.6-0.7,1.1-0.8c0.4-0.1,1-0.2,1.6-0.2h9V417h-9
		C338.3,417,337.1,417.1,336,417.4z"/>
	
		<linearGradient id="SVGID_00000074439965432261243340000017458184208797058179_" gradientUnits="userSpaceOnUse" x1="346.1077" y1="275.2267" x2="372.5582" y2="510.3421">
		<stop  offset="0" style="stop-color:#58595B"/>
		<stop  offset="0.8026" style="stop-color:#000000"/>
	</linearGradient>
	<path style="fill:url(#SVGID_00000074439965432261243340000017458184208797058179_);" d="M371.4,427.6c0.6-0.5,1-1.1,1.3-1.8
		c0.3-0.7,0.5-1.7,0.5-2.8c0-1.3-0.2-2.3-0.6-3.1c-0.4-0.8-1-1.4-1.6-1.8c-0.7-0.4-1.5-0.7-2.4-0.9c-0.9-0.1-1.8-0.2-2.8-0.2h-12.1
		v19.3h5.2v-6.4h7.3c0.8,0,1.4,0.1,1.6,0.4c0.3,0.2,0.4,0.7,0.4,1.3v4.8h5.2V431c0-0.9-0.2-1.6-0.5-2.1
		C372.5,428.3,372,427.9,371.4,427.6z M368.1,424.8c-0.1,0.3-0.3,0.6-0.5,0.7c-0.2,0.2-0.4,0.3-0.7,0.4c-0.3,0.1-0.6,0.1-0.9,0.1
		h-7.1v-4.8h7.1c0.3,0,0.6,0,0.9,0.1c0.3,0.1,0.5,0.2,0.7,0.4c0.2,0.2,0.4,0.4,0.5,0.7c0.1,0.3,0.2,0.7,0.2,1.2
		C368.2,424.1,368.2,424.5,368.1,424.8z"/>
	
		<linearGradient id="SVGID_00000146492813261265919520000014086103986215185557_" gradientUnits="userSpaceOnUse" x1="370.8498" y1="272.4431" x2="397.3003" y2="507.5586">
		<stop  offset="0" style="stop-color:#58595B"/>
		<stop  offset="0.8026" style="stop-color:#000000"/>
	</linearGradient>
	<path style="fill:url(#SVGID_00000146492813261265919520000014086103986215185557_);" d="M392.4,428.7c0,0.6-0.1,1.1-0.2,1.6
		c-0.1,0.4-0.3,0.8-0.6,1.1c-0.3,0.3-0.7,0.5-1.1,0.6c-0.5,0.1-1.1,0.2-1.7,0.2H387c-0.7,0-1.3-0.1-1.8-0.2
		c-0.5-0.1-0.9-0.3-1.1-0.6c-0.3-0.3-0.5-0.6-0.6-1.1c-0.1-0.4-0.2-1-0.2-1.6V417h-5.1v11.7c0,1.3,0.2,2.5,0.5,3.4
		c0.3,1,0.9,1.8,1.6,2.4c0.7,0.6,1.6,1.1,2.7,1.4c1.1,0.3,2.4,0.4,4,0.4h1.7c1.5,0,2.9-0.1,4-0.4c1.1-0.3,2-0.7,2.7-1.4
		c0.7-0.6,1.2-1.4,1.6-2.4c0.3-1,0.5-2.1,0.5-3.4V417h-5V428.7z"/>
	
		<linearGradient id="SVGID_00000005227578180054372170000017966701943543974279_" gradientUnits="userSpaceOnUse" x1="394.0129" y1="269.8373" x2="420.4634" y2="504.9528">
		<stop  offset="0" style="stop-color:#58595B"/>
		<stop  offset="0.8026" style="stop-color:#000000"/>
	</linearGradient>
	<polygon style="fill:url(#SVGID_00000005227578180054372170000017966701943543974279_);" points="401.4,421.2 408.2,421.2 
		408.2,436.3 413.4,436.3 413.4,421.2 420.2,421.2 420.2,417 401.4,417 	"/>
	
		<linearGradient id="SVGID_00000102538152377512493940000011229198083701122202_" gradientUnits="userSpaceOnUse" x1="409.1871" y1="268.1302" x2="435.6375" y2="503.2457">
		<stop  offset="0" style="stop-color:#58595B"/>
		<stop  offset="0.8026" style="stop-color:#000000"/>
	</linearGradient>
	
		<rect x="424.4" y="417" style="fill:url(#SVGID_00000102538152377512493940000011229198083701122202_);" width="5.2" height="19.3"/>
	
		<linearGradient id="SVGID_00000120523483659930818990000013557142222914217096_" gradientUnits="userSpaceOnUse" x1="427.3653" y1="266.0852" x2="453.8158" y2="501.2006">
		<stop  offset="0" style="stop-color:#58595B"/>
		<stop  offset="0.8026" style="stop-color:#000000"/>
	</linearGradient>
	<polygon style="fill:url(#SVGID_00000120523483659930818990000013557142222914217096_);" points="450.9,430.7 441.3,417 435.2,417 
		435.2,436.3 440,436.3 440,423.1 449.4,436.3 455.7,436.3 455.7,417 450.9,417 	"/>
	
		<linearGradient id="SVGID_00000039103855737309009660000004128009339260519821_" gradientUnits="userSpaceOnUse" x1="452.9536" y1="263.2065" x2="479.4041" y2="498.3219">
		<stop  offset="0" style="stop-color:#58595B"/>
		<stop  offset="0.8026" style="stop-color:#000000"/>
	</linearGradient>
	<polygon style="fill:url(#SVGID_00000039103855737309009660000004128009339260519821_);" points="470.3,423.7 465.2,417 459.5,417 
		467.6,427.8 467.6,436.3 472.8,436.3 472.8,427.8 481,417 475.4,417 	"/>
	
		<linearGradient id="SVGID_00000109017648360675389220000006548614126886260120_" gradientUnits="userSpaceOnUse" x1="505.6085" y1="257.2828" x2="532.059" y2="492.3983">
		<stop  offset="0" style="stop-color:#58595B"/>
		<stop  offset="0.8026" style="stop-color:#000000"/>
	</linearGradient>
	<path style="fill:url(#SVGID_00000109017648360675389220000006548614126886260120_);" d="M533,426.1c-0.4-0.5-1-0.8-1.7-1.1
		c-0.7-0.2-1.6-0.3-2.7-0.3h-6.2c-0.6,0-1-0.1-1.3-0.4c-0.2-0.3-0.4-0.7-0.4-1.3c0-0.6,0.1-1.1,0.4-1.3c0.2-0.3,0.7-0.4,1.3-0.4
		h11.3V417h-12.3c-1.1,0-2.1,0.1-2.8,0.4c-0.7,0.2-1.3,0.6-1.7,1.1c-0.4,0.5-0.7,1.1-0.9,1.8c-0.2,0.7-0.3,1.5-0.3,2.5
		c0,1,0.1,1.8,0.3,2.6c0.2,0.7,0.5,1.3,0.9,1.8c0.4,0.5,1,0.8,1.8,1.1c0.7,0.2,1.6,0.4,2.7,0.4h6.3c0.6,0,1,0.1,1.2,0.3
		c0.3,0.2,0.4,0.7,0.4,1.3c0,0.6-0.1,1.1-0.4,1.4c-0.2,0.3-0.7,0.4-1.2,0.4h-11.8v4.3h12.8c1.1,0,2-0.1,2.7-0.4
		c0.7-0.2,1.3-0.6,1.7-1.1c0.4-0.5,0.7-1.1,0.9-1.8c0.2-0.7,0.3-1.6,0.3-2.5s-0.1-1.8-0.3-2.5C533.8,427.2,533.5,426.6,533,426.1z"
		/>
	
		<linearGradient id="SVGID_00000168075472306791000120000004763460344363724221_" gradientUnits="userSpaceOnUse" x1="528.5987" y1="254.6964" x2="555.0492" y2="489.8119">
		<stop  offset="0" style="stop-color:#58595B"/>
		<stop  offset="0.8026" style="stop-color:#000000"/>
	</linearGradient>
	<polygon style="fill:url(#SVGID_00000168075472306791000120000004763460344363724221_);" points="544.2,428.5 556.8,428.5 
		556.8,424.8 544.2,424.8 544.2,421.2 556.9,421.2 556.9,417 539,417 539,436.3 556.9,436.3 556.9,432.1 544.2,432.1 	"/>
	
		<linearGradient id="SVGID_00000017497744565785127480000016225638263110920081_" gradientUnits="userSpaceOnUse" x1="551.9144" y1="252.0734" x2="578.3649" y2="487.1888">
		<stop  offset="0" style="stop-color:#58595B"/>
		<stop  offset="0.8026" style="stop-color:#000000"/>
	</linearGradient>
	<path style="fill:url(#SVGID_00000017497744565785127480000016225638263110920081_);" d="M579.8,427.6c0.6-0.5,1-1.1,1.3-1.8
		c0.3-0.7,0.5-1.7,0.5-2.8c0-1.3-0.2-2.3-0.6-3.1c-0.4-0.8-1-1.4-1.6-1.8c-0.7-0.4-1.5-0.7-2.4-0.9c-0.9-0.1-1.8-0.2-2.8-0.2h-12.1
		v19.3h5.2v-6.4h7.3c0.8,0,1.4,0.1,1.6,0.4c0.3,0.2,0.4,0.7,0.4,1.3v4.8h5.2V431c0-0.9-0.2-1.6-0.5-2.1
		C580.9,428.3,580.4,427.9,579.8,427.6z M576.5,424.8c-0.1,0.3-0.3,0.6-0.5,0.7c-0.2,0.2-0.4,0.3-0.7,0.4c-0.3,0.1-0.6,0.1-0.9,0.1
		h-7.1v-4.8h7.1c0.3,0,0.6,0,0.9,0.1c0.3,0.1,0.5,0.2,0.7,0.4c0.2,0.2,0.4,0.4,0.5,0.7c0.1,0.3,0.2,0.7,0.2,1.2
		C576.6,424.1,576.6,424.5,576.5,424.8z"/>
	
		<linearGradient id="SVGID_00000118379042091601587760000009875042083663091086_" gradientUnits="userSpaceOnUse" x1="577.1784" y1="249.2312" x2="603.6289" y2="484.3466">
		<stop  offset="0" style="stop-color:#58595B"/>
		<stop  offset="0.8026" style="stop-color:#000000"/>
	</linearGradient>
	<polygon style="fill:url(#SVGID_00000118379042091601587760000009875042083663091086_);" points="595.9,431.1 589.5,417 583.8,417 
		593.2,436.3 598.8,436.3 608.3,417 602.5,417 	"/>
	
		<linearGradient id="SVGID_00000045618951241024137400000003967826376506369700_" gradientUnits="userSpaceOnUse" x1="594.7279" y1="247.2569" x2="621.1784" y2="482.3723">
		<stop  offset="0" style="stop-color:#58595B"/>
		<stop  offset="0.8026" style="stop-color:#000000"/>
	</linearGradient>
	
		<rect x="612.3" y="417" style="fill:url(#SVGID_00000045618951241024137400000003967826376506369700_);" width="5.2" height="19.3"/>
	
		<linearGradient id="SVGID_00000170982438819414044700000007962412421810686377_" gradientUnits="userSpaceOnUse" x1="611.126" y1="245.4121" x2="637.5765" y2="480.5275">
		<stop  offset="0" style="stop-color:#58595B"/>
		<stop  offset="0.8026" style="stop-color:#000000"/>
	</linearGradient>
	<path style="fill:url(#SVGID_00000170982438819414044700000007962412421810686377_);" d="M627.1,417.4c-1.1,0.3-2,0.7-2.7,1.5
		c-0.7,0.7-1.2,1.7-1.6,2.9c-0.4,1.3-0.5,2.9-0.5,4.9c0,2,0.2,3.6,0.5,4.9c0.4,1.3,0.9,2.2,1.6,2.9c0.7,0.7,1.6,1.2,2.7,1.4
		c1.1,0.3,2.3,0.4,3.8,0.4h9V432h-9c-0.6,0-1.2-0.1-1.6-0.2s-0.8-0.4-1.1-0.8c-0.3-0.4-0.5-0.9-0.6-1.7c-0.1-0.7-0.2-1.6-0.2-2.7
		c0-1.1,0.1-2,0.2-2.7c0.1-0.7,0.3-1.3,0.6-1.7c0.3-0.4,0.6-0.7,1.1-0.8c0.4-0.1,1-0.2,1.6-0.2h9V417h-9
		C629.4,417,628.2,417.1,627.1,417.4z"/>
	
		<linearGradient id="SVGID_00000088811694339775910910000016204068165957775549_" gradientUnits="userSpaceOnUse" x1="633.0549" y1="242.9451" x2="659.5054" y2="478.0605">
		<stop  offset="0" style="stop-color:#58595B"/>
		<stop  offset="0.8026" style="stop-color:#000000"/>
	</linearGradient>
	<polygon style="fill:url(#SVGID_00000088811694339775910910000016204068165957775549_);" points="650,428.5 662.6,428.5 
		662.6,424.8 650,424.8 650,421.2 662.6,421.2 662.6,417 644.8,417 644.8,436.3 662.7,436.3 662.7,432.1 650,432.1 	"/>
	
		<linearGradient id="SVGID_00000045621247508348256770000006716983311787560615_" gradientUnits="userSpaceOnUse" x1="274.5302" y1="283.2791" x2="300.9807" y2="518.3945">
		<stop  offset="0" style="stop-color:#58595B"/>
		<stop  offset="0.8026" style="stop-color:#000000"/>
	</linearGradient>
	<path style="fill:url(#SVGID_00000045621247508348256770000006716983311787560615_);" d="M290.7,422.1c-2.7,0-4.8,2.2-4.8,4.8
		c0,2.7,2.2,4.8,4.8,4.8c2.7,0,4.8-2.2,4.8-4.8C295.5,424.2,293.4,422.1,290.7,422.1z"/>
	
		<linearGradient id="SVGID_00000112604673311271545820000010515456071259668882_" gradientUnits="userSpaceOnUse" x1="477.6822" y1="260.4245" x2="504.1327" y2="495.5399">
		<stop  offset="0" style="stop-color:#58595B"/>
		<stop  offset="0.8026" style="stop-color:#000000"/>
	</linearGradient>
	<path style="fill:url(#SVGID_00000112604673311271545820000010515456071259668882_);" d="M496.4,422.1c-2.7,0-4.8,2.2-4.8,4.8
		c0,2.7,2.2,4.8,4.8,4.8c2.7,0,4.8-2.2,4.8-4.8C501.2,424.2,499.1,422.1,496.4,422.1z"/>
	<path d="M304.2,199.3c0.9-0.9,1.6-2.1,1.6-3.5c0-2.6-2.1-4.8-4.8-4.8s-4.8,2.1-4.8,4.8c0,1.4,0.6,2.6,1.6,3.5
		c0.9,0.8,2,1.3,3.2,1.3C302.3,200.6,303.4,200.1,304.2,199.3z"/>
	
		<linearGradient id="SVGID_00000123408269034193985370000005304922574054122627_" gradientUnits="userSpaceOnUse" x1="516.0244" y1="72.6385" x2="484.8425" y2="158.247">
		<stop  offset="0" style="stop-color:#58595B"/>
		<stop  offset="0.8026" style="stop-color:#000000"/>
	</linearGradient>
	<path style="fill:url(#SVGID_00000123408269034193985370000005304922574054122627_);" d="M535.4,174.1l-52-100.7
		c-3.1-6-9.2-9.7-15.9-9.7H462L432.7,130c4.4,0.2,8.3,0.6,11.5,1.1l0,0c0.7,0.1,1.4,0.3,2.1,0.4c1.4,0.3,2.6,0.5,3.6,0.8
		c0,0,0.1,0,0.1,0c2.4,0.6,3.7,1,3.7,1l-0.1,0c9.4,2.8,18.2,7.4,26,13.6l18.3,14.5l3.1,2.5c13.8,1.9,30.6,9.1,37.9,17.2L535.4,174.1
		z"/>
	
		<linearGradient id="SVGID_00000122704410975742645730000012938809875752488884_" gradientUnits="userSpaceOnUse" x1="331.2803" y1="5.784" x2="329.0194" y2="292.9121">
		<stop  offset="0" style="stop-color:#58595B"/>
		<stop  offset="0.8026" style="stop-color:#000000"/>
	</linearGradient>
	<path style="fill:url(#SVGID_00000122704410975742645730000012938809875752488884_);" d="M352.1,129.9h1h0.2h3.2h11.6h14h3.8h32.5
		l29.2-66.2H332.1c-10.2,0-19.5,5.9-23.9,15.1l-27.2,57l21.8,47.9c6,0.9,10.6,6,10.6,12.3c-0.1,6.4-5.3,11.9-11.7,12.2
		c-7.1,0.3-12.9-5.3-12.9-12.3c0-2.6,0.8-5.1,2.3-7.1l-2.3-5.3l-14.9-32.8l-0.6,1.3l0,0v0l0,0l-59.5,123.6
		c-4.4,8.7,1.9,18.9,11.6,18.9h36.4h57.5h15.3h11.3l17.1-37.9h-74.3l6-13.1h56.9h10.7h6.5h17.5h0.1c0,0.1,0,0.1,0,0
		c0.1-0.2,0.2-0.9,0.4-2c1.4-6,2.2-12.7,2.2-19.9c0-24.2-9-43.9-20.1-43.9c-11.1,0-20.1,19.6-20.1,43.9c0,3.7,0.2,7.2,0.6,10.6
		l-0.2-0.1h-13.8h-81.2l6-13.1h79.4c0.2-11.4,2.3-21.5,5.6-29.6c5.3-11.7,13.1-15,13.1-15L345,142.4c0,0,0,0,0,0
		c-0.3-0.8-1-1.4-1.9-1.8c-2.8-1.1-10.3-3.3-23.4-1.4c-8.3,1.4-18.1,4.6-26.3,9.9l-1.5-3.3c0.1-0.1,0.2-0.1,0.3-0.2
		C294.6,143.6,313.7,129.9,352.1,129.9z M335,143.8l10.8,23l-1.9,0.6l-1.4-3c-2.2-4.7-7.1-7.7-12.3-7.5c-6.3,0.3-11.4,0.9-11.9,3.5
		c-0.9,4.4,3.6,7.3,7.7,9.1l-1,1.3c0,0,0,0,0,0l-22.8-2c0,0,0,0,0,0l-6.6-14.9C300,151.2,316.6,141.8,335,143.8z"/>
	
		<linearGradient id="SVGID_00000012456801698784970300000008219920474153761718_" gradientUnits="userSpaceOnUse" x1="397.4371" y1="121.3117" x2="524.7984" y2="303.6872">
		<stop  offset="0" style="stop-color:#EF4136"/>
		<stop  offset="0.8514" style="stop-color:#BE1E2D"/>
	</linearGradient>
	<path style="fill:url(#SVGID_00000012456801698784970300000008219920474153761718_);" d="M371,173.1c6.4,1,11.9,6.2,16,14.4
		c0.5-0.1,1.3-0.2,2.4-0.4c4.5-0.6,13.4-0.9,23.4,2.6c8.6,3,17.9,8.9,26,20c2.9,3.7,5.4,6.4,7.8,8.5c0.6,0.5,0.2,1.4-0.5,1.4
		l-17.2,0l-0.8,0l-8.6-0.4c-0.2-0.2-0.4-0.3-0.7-0.4l-8.9-17.8c-1.7-3.4-4.9-5.8-8.7-6.5c-1.7-0.3-3.2,1.2-2.9,2.9l1.7,8.4l4.7,23.2
		c0.4,1.9,2.1,3.3,4,3.3h3.7c1.9,0,3.6-1,4.5-2.7l2.6-4.8c0.1-0.2,0.2-0.5,0.3-0.7h44.7h8.4h65.7h14.2c-0.4,0.7-1,1.5-1.6,2.3
		c-0.3,0.4-0.7,0.9-1,1.3c-0.1,0.1-0.1,0.1-0.2,0.2c-4.8,5.6-11,9.8-17.9,12c-3.9,1.3-8,2-12.2,2l-121.7-0.2l24.5,53H574
		c10.3,0,17-10.9,12.3-20.1l-5.4-10.6l-17.3-34l-1.9-3.7l-11.6-22.6c-5-9.8-15-15.9-26-15.9h-26.2h-41.4h-12.7c0,0-32.1,1.7-53-8.8
		l0,0c-0.4-0.2-0.8-0.3-1.1-0.5c-5.2-2.6-9.4-6.2-12.7-9.7c-2.5-2.6-4.4-5.1-5.8-7.1h18c1.4,0,2.8,0,4.2,0c13.4,0,38.2,0,54.3,0
		c2.9,0,5.8,0,8.7,0c4.5,0,8.9,0,13.1,0.2c3.5,0.1,6.7,0.3,9.3,0.4c3.5,0.2,6.1,0.3,7.8,0.4c1,0.1,1.7,0.1,1.9,0.1
		c0.1,0,0.1,0,0.2,0l-1.4-1.1l-11.7-9.3c-9.1-7.2-19.9-12.1-31.3-14.3c-4.4-0.8-8.9-1.3-13.4-1.3h-3.1h-76.4c-0.6,0-1,0.6-0.7,1.1
		l16.1,35.2C366.6,172.9,369.1,172.6,371,173.1z M485.3,161.4C485.3,161.5,485.3,161.5,485.3,161.4h-0.1H485.3z"/>
</g>
</svg>
