<?xml version="1.0" encoding="utf-8"?>
<!-- Generator: Adobe Illustrator 27.0.0, SVG Export Plug-In . SVG Version: 6.00 Build 0)  -->
<svg version="1.1" id="Layer_1" xmlns="http://www.w3.org/2000/svg" xmlns:xlink="http://www.w3.org/1999/xlink" x="0px" y="0px"
	 viewBox="0 0 1000 300" style="enable-background:new 0 0 1000 300;" xml:space="preserve">
<style type="text/css">
	.st0{fill:url(#SVGID_1_);}
	.st1{fill:url(#SVGID_00000176726515829699711700000017744856806086596514_);}
	.st2{fill:url(#SVGID_00000120543817804385900480000000719617764524822934_);}
	.st3{fill:url(#SVGID_00000160913059780685482600000003344876321434247101_);}
	.st4{fill:url(#SVGID_00000029037020976941425230000016363856338388724891_);}
	.st5{fill:url(#SVGID_00000067927089897276955820000000067102177164047286_);}
	.st6{fill:url(#SVGID_00000137126149723831064540000000215632980675039125_);}
	.st7{fill:url(#SVGID_00000032640475111542299070000005164226264543142557_);}
	.st8{fill:url(#SVGID_00000156581331830186755670000010393495879516557754_);}
	.st9{fill:url(#SVGID_00000017479597093863414030000013014496683780443548_);}
	.st10{fill:url(#SVGID_00000052100273724548771760000017821210874709127102_);}
	.st11{fill:url(#SVGID_00000045618428407384813400000002070009510131218050_);}
	.st12{fill:url(#SVGID_00000098201955711267282000000000789772175682148029_);}
	.st13{fill:url(#SVGID_00000160901346750427348670000005372420036096158880_);}
	.st14{fill:url(#SVGID_00000069376268602360545730000008944776410524784278_);}
	.st15{fill:url(#SVGID_00000095309269844945328690000015723415083977017493_);}
	.st16{fill:url(#SVGID_00000139991582005072066600000003009314204224666545_);}
	.st17{fill:url(#SVGID_00000027572792148555271280000006073378523056879774_);}
	.st18{fill:url(#SVGID_00000046314274704413408570000018145663245978333850_);}
	.st19{fill:url(#SVGID_00000136370438241524811300000011900039404517776512_);}
	.st20{fill:url(#SVGID_00000018920245792942737890000016790350638262924223_);}
	.st21{fill:url(#SVGID_00000031203210780122341000000000174288789630468237_);}
	.st22{fill:url(#SVGID_00000100384481601428678420000010317047994027522963_);}
	.st23{fill:url(#SVGID_00000006686086921246079410000015512614510520540336_);}
	.st24{fill:url(#SVGID_00000145026095679611227940000001497841344316587413_);}
	.st25{fill:url(#SVGID_00000181079175969481950710000016325344966139720580_);}
	.st26{fill:url(#SVGID_00000137095816886671633870000007507749765017603481_);}
	.st27{fill:url(#SVGID_00000008136314354501928760000012875923747712073872_);}
	.st28{fill:url(#SVGID_00000042724313915184088050000010875848879761143187_);}
	.st29{fill:url(#SVGID_00000115502677308619526330000010106228370698956436_);}
	.st30{fill:url(#SVGID_00000009579140012062539770000003619639083173326743_);}
	.st31{fill:url(#SVGID_00000146463430999032249740000009102925928873494919_);}
	.st32{fill:url(#SVGID_00000050646327264913739410000008757305391081200055_);}
	.st33{fill:url(#SVGID_00000119835525264360983020000009495177819651766452_);}
	.st34{fill:url(#SVGID_00000027598932517285118080000007938445915609782944_);}
	.st35{fill:url(#SVGID_00000104670326722479554400000011326301607285402794_);}
	.st36{fill:url(#SVGID_00000098905940132054722030000013457616743566695828_);}
	.st37{fill:url(#SVGID_00000107585393472923429010000017663062469159035314_);}
	.st38{fill:#FFFFFF;}
	.st39{fill:url(#SVGID_00000103979197630094318090000000538298144202024852_);}
	.st40{fill:url(#SVGID_00000075867841371559475390000000434083834686042283_);}
	.st41{fill:url(#SVGID_00000039845447518433340610000011201854788929350309_);}
	.st42{fill:url(#SVGID_00000049915963977971361170000010266359491340722107_);}
	.st43{fill:url(#SVGID_00000078753920438686427100000012707795802059067813_);}
	.st44{fill:url(#SVGID_00000096772503396307492150000012890905313911047339_);}
	.st45{fill:url(#SVGID_00000111177872364032585290000015840636093566198718_);}
	.st46{fill:url(#SVGID_00000128451804041815279250000016406042245646257323_);}
	.st47{fill:url(#SVGID_00000149341341596197199120000013485263269109680535_);}
	.st48{fill:url(#SVGID_00000181799884400753793630000001793179830493068683_);}
	.st49{fill:url(#SVGID_00000105399653473355203310000005715601625698455435_);}
	.st50{fill:url(#SVGID_00000013888637370619648630000003178296116847692202_);}
	.st51{fill:url(#SVGID_00000048491495554254217110000017544594372924114821_);}
	.st52{fill:url(#SVGID_00000161630387559600364680000003670134705395979413_);}
	.st53{fill:url(#SVGID_00000090983558689497641310000012365969193761179829_);}
	.st54{fill:url(#SVGID_00000010307646485846268280000005301806062462304902_);}
	.st55{fill:url(#SVGID_00000088134104767325270120000011112709671730882743_);}
	.st56{fill:url(#SVGID_00000147218251089456739030000015517792329199233950_);}
	.st57{fill:url(#SVGID_00000127024233627655884480000005046894272187657139_);}
	.st58{fill:url(#SVGID_00000160160284093804321230000009173846406514143380_);}
	.st59{fill:url(#SVGID_00000176038859826302778550000009986872867550922131_);}
	.st60{fill:url(#SVGID_00000065779587592901025080000015674804558366393996_);}
	.st61{fill:url(#SVGID_00000160909362531859812730000007669286136708802226_);}
	.st62{fill:url(#SVGID_00000152978200976850030040000007240747565117132419_);}
	.st63{fill:url(#SVGID_00000108284025855225399750000004195627749530679943_);}
	.st64{fill:url(#SVGID_00000074420464309910247270000005905126823949890465_);}
	.st65{fill:url(#SVGID_00000129197803026229099120000005474550566573004673_);}
	.st66{fill:url(#SVGID_00000050642106303689436240000012627787604649183648_);}
	.st67{fill:url(#SVGID_00000175312118489139782210000001040766603174885543_);}
	.st68{fill:url(#SVGID_00000026865264553832802040000014857371728142630320_);}
	.st69{fill:url(#SVGID_00000142871626036735368240000007707715189075462581_);}
	.st70{fill:url(#SVGID_00000100373539387649783740000011647077328572006819_);}
	.st71{fill:url(#SVGID_00000049920473238319673090000008972500236540100025_);}
	.st72{fill:url(#SVGID_00000029761594216971625850000004756592818409582981_);}
	.st73{fill:url(#SVGID_00000030485139382765532530000003744586421810013343_);}
	.st74{fill:url(#SVGID_00000160185228008369466270000013567928365105609397_);}
	.st75{fill:url(#SVGID_00000180347857106765306470000001141299642371478672_);}
	.st76{fill:url(#SVGID_00000092450425395805177360000006794533261700991877_);}
	.st77{fill:url(#SVGID_00000153702412168726892220000016709000838544310965_);}
	.st78{fill:url(#SVGID_00000043420290279547432820000009694310669662952073_);}
	.st79{fill:url(#SVGID_00000158717084853246795030000001422284818544289940_);}
</style>
<g>
	<g>
		
			<linearGradient id="SVGID_1_" gradientUnits="userSpaceOnUse" x1="301.6776" y1="105.7859" x2="399.1407" y2="245.3484" gradientTransform="matrix(1 0 -0.364 1 -33.8431 0)">
			<stop  offset="0" style="stop-color:#EF4136"/>
			<stop  offset="0.8514" style="stop-color:#BE1E2D"/>
		</linearGradient>
		<path class="st0" d="M330,214.8l-3.8-26l-0.4-2.8l-2.5-17.3c-1.1-7.5-7.1-12.2-15.5-12.2h-20.1h-31.7h-9.7c0,0-25,1.3-38.1-6.7
			l0,0c-0.2-0.1-0.5-0.3-0.7-0.4c-3.2-2-5.5-4.8-7.1-7.4c-1.2-2-2-3.9-2.5-5.4h13.8c1,0,2.1,0,3.2,0c10.3,0,29.3,0,41.6,0
			c2.2,0,4.4,0,6.6,0c3.5,0,6.8,0,10,0.1c2.7,0.1,5,0.2,7,0.3c2.6,0.1,4.6,0.2,5.8,0.3c0.8,0,1.3,0.1,1.4,0.1c0.1,0,0.1,0,0.2,0
			l-0.8-0.9l-6.4-7.1c-5-5.5-11.9-9.3-20-10.9c-3.1-0.6-6.4-1-9.9-1h-2.4h-58.5c-0.4,0-0.9,0.5-0.9,0.9l2.5,26.9
			c0,0,1.9-0.2,3.3,0.1c4.6,0.7,7.4,4.8,8.2,11c0.4-0.1,1.1-0.2,1.9-0.3c3.6-0.4,10.5-0.7,17.2,2c5.7,2.3,11.2,6.8,14.3,15.3
			c1.2,2.8,2.3,4.9,3.6,6.5c0.3,0.4-0.2,1.1-0.8,1.1l-13.2,0l-0.6,0l-6.5-0.3c-0.1-0.1-0.3-0.2-0.4-0.3l-1.8-13.6
			c-0.4-2.6-2.2-4.5-4.8-5c-1.2-0.2-2.8,0.9-3,2.2l-1,6.4l-2.9,17.8c-0.2,1.5,0.7,2.5,2.2,2.5h2.9c1.4,0,3.1-0.8,4.2-2.1l3.4-3.7
			c0.2-0.2,0.3-0.3,0.4-0.5h34.2h6.4h50.3h10.9c-0.5,0.6-1.2,1.1-1.8,1.8c-0.4,0.3-0.8,0.7-1.2,1c0,0-12.1,12.2-35.3,12.2
			c-20.2,0-71.8,0-84.7,0l3.8,39.1h115.7c7.9,0,16-8.3,15-15.4L330,214.8z M285.4,136.5C285.4,136.5,285.4,136.5,285.4,136.5h-0.1
			H285.4z"/>
		<g>
			
				<linearGradient id="SVGID_00000147930961684432330180000003848706342720147332_" gradientUnits="userSpaceOnUse" x1="285.3536" y1="136.4758" x2="285.3558" y2="136.6021">
				<stop  offset="0" style="stop-color:#58595B"/>
				<stop  offset="0.8026" style="stop-color:#000000"/>
			</linearGradient>
			<path style="fill:url(#SVGID_00000147930961684432330180000003848706342720147332_);" d="M285.3,136.5l0.2,0.1c0,0,0,0,0-0.1
				H285.3z"/>
			
				<linearGradient id="SVGID_00000176004598646511627310000008783621673224313785_" gradientUnits="userSpaceOnUse" x1="134.7013" y1="158.08" x2="134.9726" y2="173.8168">
				<stop  offset="0" style="stop-color:#58595B"/>
				<stop  offset="0.8026" style="stop-color:#000000"/>
			</linearGradient>
			<path style="fill:url(#SVGID_00000176004598646511627310000008783621673224313785_);" d="M133.4,166.5c1,0,2-0.4,2.8-1
				c1-0.7,1.8-1.6,2.2-2.7c0.7-2-0.3-3.7-2.3-3.7c-2,0-4.3,1.6-5,3.7c-0.4,1.1-0.3,2,0.2,2.7C131.8,166.1,132.5,166.5,133.4,166.5z"
				/>
			
				<linearGradient id="SVGID_00000160169828652700489900000009181041360659905193_" gradientUnits="userSpaceOnUse" x1="328.9033" y1="43.8792" x2="288.796" y2="129.1071">
				<stop  offset="0" style="stop-color:#58595B"/>
				<stop  offset="0.8026" style="stop-color:#000000"/>
			</linearGradient>
			<path style="fill:url(#SVGID_00000160169828652700489900000009181041360659905193_);" d="M313.8,104l34.1-42.3H299h-4.2
				l-40.9,50.7c3.3,0.1,6.2,0.5,8.5,0.9l0,0c0.5,0.1,1,0.2,1.5,0.3c1,0.2,1.9,0.4,2.6,0.6c0,0,0.1,0,0.1,0c1.7,0.4,2.6,0.8,2.6,0.8
				l-0.1,0c6.4,2.2,11.9,5.7,16.1,10.4l10,11.1l1.7,1.9c10,1.5,20.9,6.9,24.2,13.1l-0.8-5.3L313.8,104z"/>
			
				<linearGradient id="SVGID_00000150812103109245177540000008420241379611099301_" gradientUnits="userSpaceOnUse" x1="239.5581" y1="7.8848" x2="167.4904" y2="123.1931">
				<stop  offset="0" style="stop-color:#58595B"/>
				<stop  offset="0.8026" style="stop-color:#000000"/>
			</linearGradient>
			<path style="fill:url(#SVGID_00000150812103109245177540000008420241379611099301_);" d="M215.4,61.7h-20h-22.1
				c-6.4,0-12.5,2.9-16.5,7.8l-22.8,27.6l5.6,56.4c4.4,0.7,6.5,4.6,4.7,9.4c-1.8,4.9-7.3,9.1-12.4,9.3c-5.5,0.3-8.4-4.1-6.5-9.4
				c0.7-2,2.1-3.9,3.7-5.4l-2.3-26.1l-0.3-3l-1.8-19.9l-107,129.9h31.7h17.5h10.4h44h11.7h8.6l23.7-29h-56.8l8.2-10.1h43.6h8.2h5
				h13.4h0c0,0.1,0,0.1,0,0c0.1-0.1,0.4-0.7,0.8-1.5c2.7-4.6,5.2-9.8,7.2-15.2c6.8-18.5,5.3-33.6-3.1-33.6c-8.5,0-20.8,15-27.6,33.6
				c-1,2.8-1.8,5.5-2.5,8.1l-0.1,0H151H88.8l8.2-10.1h60.8c3.4-8.7,7.7-16.5,12.6-22.7c7.3-9,14.2-11.5,14.2-11.5l-1.3-24.4
				c0,0,0,0,0,0c0-0.6-0.4-1.1-0.9-1.3c-1.8-0.9-7-2.6-17.5-1.1c-6.8,1-15.1,3.5-22.9,7.6l-0.2-2.6c0.1-0.1,0.2-0.1,0.3-0.2
				c2.4-1.5,20.9-12,50.3-12h0.8h0.2h2.5h8.9h10.7h2.9h24.9l40.8-50.6H215.4z M147.2,128.5C147.2,128.5,147.2,128.4,147.2,128.5
				L147.2,128.5c5.8-2.4,16.9-5.8,28.9-5.3l1.1,17.5l-1.6,0.5l-0.2-2.3c-0.4-3.6-3.3-5.9-7.3-5.7c-4.9,0.2-9,0.7-10.1,2.6
				c-2,3.4,0.8,5.6,3.3,7l-1.2,1c0,0,0,0,0,0l-16.9-1.5c0,0,0,0,0,0l-0.9-11.4L147.2,128.5C147.2,128.5,147.2,128.5,147.2,128.5z"/>
		</g>
	</g>
	<g>
		<g>
			
				<linearGradient id="SVGID_00000068664108952554679550000001002213038266458763_" gradientUnits="userSpaceOnUse" x1="408.2119" y1="54.2649" x2="408.8719" y2="182.9662">
				<stop  offset="0" style="stop-color:#58595B"/>
				<stop  offset="0.8026" style="stop-color:#000000"/>
			</linearGradient>
			<path style="fill:url(#SVGID_00000068664108952554679550000001002213038266458763_);" d="M390.4,70.9h36.8
				c2.2,0,3.6,3.9,4.2,11.6l18.2,92.1c-0.2,0.9-0.9,1.4-2.1,1.4h-21.7c-1.9,0-3-2.8-3.5-8.4c-1.5-10.1-2.7-15.6-3.5-16.5H408h-9.1
				c-0.9,0-2.4,7.8-4.6,23.5l-1.4,1.4h-23.8L368,175c6.8-34.2,11.8-61.3,15.1-81.3l4.6-21.4C388.6,71.4,389.6,70.9,390.4,70.9z
				 M399.5,131.5l0.4,0.4h13.3l0.7-0.7l-6.7-37.1l-0.4-0.4h-0.4c-1.1,0-2.1,4.1-3.2,12.3C400.8,120,399.5,128.6,399.5,131.5z"/>
			
				<linearGradient id="SVGID_00000170260925167411803580000006987334706459902892_" gradientUnits="userSpaceOnUse" x1="486.9224" y1="53.8612" x2="487.5824" y2="182.5626">
				<stop  offset="0" style="stop-color:#58595B"/>
				<stop  offset="0.8026" style="stop-color:#000000"/>
			</linearGradient>
			<path style="fill:url(#SVGID_00000170260925167411803580000006987334706459902892_);" d="M502.7,70.9c7.2,1.2,12.4,3.5,15.6,6.9
				c2.2,3.5,3.3,7.8,3.3,12.8l0.3,62.7c-0.3,5.1-2.5,10.1-6.7,15.1c-5.1,4.9-10.5,7.5-16.1,7.7h-44.1c-0.7,0-1.4-0.9-2.1-2.8V74.8
				c0-2.6,0.8-3.9,2.5-3.9H502.7z M477.9,90.2v65.2c0,0.7,0.5,1.1,1.4,1.1h10.9c4.5,0,6.8-1.6,7-4.9V95.1c0-3.5-3-5.2-8.8-4.9H477.9
				z"/>
			
				<linearGradient id="SVGID_00000058590811314359186490000011339897835512589222_" gradientUnits="userSpaceOnUse" x1="565.5143" y1="53.4582" x2="566.1743" y2="182.1596">
				<stop  offset="0" style="stop-color:#58595B"/>
				<stop  offset="0.8026" style="stop-color:#000000"/>
			</linearGradient>
			<path style="fill:url(#SVGID_00000058590811314359186490000011339897835512589222_);" d="M547.7,70.9h36.8
				c2.2,0,3.6,3.9,4.2,11.6l18.2,92.1c-0.2,0.9-0.9,1.4-2.1,1.4h-21.7c-1.9,0-3-2.8-3.5-8.4c-1.5-10.1-2.7-15.6-3.5-16.5h-10.9h-9.1
				c-0.9,0-2.4,7.8-4.6,23.5l-1.4,1.4h-23.8l-1.1-1.1c6.8-34.2,11.8-61.3,15.1-81.3l4.6-21.4C545.9,71.4,546.9,70.9,547.7,70.9z
				 M556.9,131.5l0.4,0.4h13.3l0.7-0.7l-6.7-37.1l-0.4-0.4h-0.4c-1.1,0-2.1,4.1-3.2,12.3C558.1,120,556.9,128.6,556.9,131.5z"/>
			
				<linearGradient id="SVGID_00000035516920175441996170000010117229903887054741_" gradientUnits="userSpaceOnUse" x1="643.7359" y1="53.0571" x2="644.3959" y2="181.7584">
				<stop  offset="0" style="stop-color:#58595B"/>
				<stop  offset="0.8026" style="stop-color:#000000"/>
			</linearGradient>
			<path style="fill:url(#SVGID_00000035516920175441996170000010117229903887054741_);" d="M628.9,70.9h44.8l1.1,1.1v16.5
				c0,1.3-0.5,2.1-1.4,2.5h-31.9c-3.7,1.1-5.6,3.1-5.6,6v7.4c0,3.9,3.5,6.3,10.5,7.4c1.8,0,9.1,1.8,22.1,5.3
				c6.3,3.8,9.5,10.1,9.5,18.9v14.7c0,11.5-5,19.5-15.1,23.8l-8.8,1.8h-39.6c-1.3,0-2.3-0.7-3.2-2.1v-17.5l2.1-1.8l2.5,0.4h30.8
				c3.7-0.7,5.6-2.6,5.6-5.6v-8.8c0-3.2-1.5-5.3-4.6-6.3c-21-4.4-31.5-7.6-31.5-9.5c-4-3.4-6-8.8-6-16.1V93.7
				c0-9.6,4.8-16.7,14.4-21.4L628.9,70.9z"/>
			
				<linearGradient id="SVGID_00000021807069969681022920000014734565706041884061_" gradientUnits="userSpaceOnUse" x1="719.6411" y1="26.5426" x2="719.6411" y2="183.6742">
				<stop  offset="0" style="stop-color:#EF4136"/>
				<stop  offset="0.8514" style="stop-color:#BE1E2D"/>
			</linearGradient>
			<path style="fill:url(#SVGID_00000021807069969681022920000014734565706041884061_);" d="M704.4,70.9h44.8l1.1,1.1v16.5
				c0,1.3-0.5,2.1-1.4,2.5H717c-3.7,1.1-5.6,3.1-5.6,6v7.4c0,3.9,3.5,6.3,10.5,7.4c1.8,0,9.1,1.8,22.1,5.3
				c6.3,3.8,9.5,10.1,9.5,18.9v14.7c0,11.5-5,19.5-15.1,23.8l-8.8,1.8H690c-1.3,0-2.3-0.7-3.2-2.1v-17.5l2.1-1.8l2.5,0.4h30.8
				c3.7-0.7,5.6-2.6,5.6-5.6v-8.8c0-3.2-1.5-5.3-4.6-6.3c-21-4.4-31.5-7.6-31.5-9.5c-4-3.4-6-8.8-6-16.1V93.7
				c0-9.6,4.8-16.7,14.4-21.4L704.4,70.9z"/>
			
				<linearGradient id="SVGID_00000138555582526115638620000003164858814487800197_" gradientUnits="userSpaceOnUse" x1="797.5953" y1="26.5426" x2="797.5953" y2="183.6742">
				<stop  offset="0" style="stop-color:#EF4136"/>
				<stop  offset="0.8514" style="stop-color:#BE1E2D"/>
			</linearGradient>
			<path style="fill:url(#SVGID_00000138555582526115638620000003164858814487800197_);" d="M779.2,70.9H816c2.2,0,3.6,3.9,4.2,11.6
				l18.2,92.1c-0.2,0.9-0.9,1.4-2.1,1.4h-21.7c-1.9,0-3-2.8-3.5-8.4c-1.5-10.1-2.7-15.6-3.5-16.5h-10.9h-9.1
				c-0.9,0-2.4,7.8-4.6,23.5l-1.4,1.4h-23.8l-1.1-1.1c6.8-34.2,11.8-61.3,15.1-81.3l4.6-21.4C777.4,71.4,778.3,70.9,779.2,70.9z
				 M788.3,131.5l0.4,0.4H802l0.7-0.7L796,94.1l-0.4-0.4h-0.4c-1.1,0-2.1,4.1-3.2,12.3C789.6,120,788.3,128.6,788.3,131.5z"/>
			
				<linearGradient id="SVGID_00000137122705727092129110000012507804320214142339_" gradientUnits="userSpaceOnUse" x1="878.002" y1="26.5426" x2="878.002" y2="183.6742">
				<stop  offset="0" style="stop-color:#EF4136"/>
				<stop  offset="0.8514" style="stop-color:#BE1E2D"/>
			</linearGradient>
			<path style="fill:url(#SVGID_00000137122705727092129110000012507804320214142339_);" d="M843.1,70.9h69c1.4,0,2.1,0.9,2.1,2.8
				v16.5c0,2.1-1.1,3.2-3.2,3.2h-38.9l-1.1,1.1v18.9c0,0.8,0.4,1.5,1.1,2.1h4.2h25.9c0.9,0.4,1.4,1.2,1.4,2.5v18.2
				c0,1.6-0.8,2.5-2.5,2.5h-29.4l-0.7,0.7V175l-1.1,1.1h-27c-0.7,0-1.2-1.6-1.4-4.9l0.3-97l-0.3-0.4v-0.4
				C842.2,71.8,842.6,70.9,843.1,70.9z"/>
			
				<linearGradient id="SVGID_00000071519170725860176780000001439784658948714625_" gradientUnits="userSpaceOnUse" x1="949.9968" y1="26.5426" x2="949.9968" y2="183.6742">
				<stop  offset="0" style="stop-color:#EF4136"/>
				<stop  offset="0.8514" style="stop-color:#BE1E2D"/>
			</linearGradient>
			<path style="fill:url(#SVGID_00000071519170725860176780000001439784658948714625_);" d="M919,70.9h60.6l1.1,1.1v15.8
				c0,1.6-0.8,2.5-2.4,2.5h-34.7c-1.4,0-2.1,0.7-2.1,2.1v18.2l1.1,1.1h29.4c2.1,0,3.2,0.8,3.2,2.5v15.1c0,1.4-0.7,2.1-2.1,2.1h-29.4
				c-1.4,0-2.1,0.7-2.1,2.1v17.5c0,4,3,6,9.1,6h29.4c1.6,0,2.5,0.8,2.5,2.5V175l-1.1,1.1h-45.2c-6.7-1.8-11.7-5.3-15.1-10.5
				c-2.3-4.7-3.5-9.3-3.5-13.7V75.1C917.6,72.3,918.1,70.9,919,70.9z"/>
		</g>
		<g>
			<path d="M374.7,199.4h12.6l0.3,0.3v4.6c0,0.4-0.1,0.6-0.4,0.7h-9c-1.1,0.3-1.6,0.9-1.6,1.7v2.1c0,1.1,1,1.8,3,2.1
				c0.5,0,2.6,0.5,6.2,1.5c1.8,1.1,2.7,2.8,2.7,5.3v4.1c0,3.3-1.4,5.5-4.2,6.7l-2.5,0.5h-11.2c-0.4,0-0.7-0.2-0.9-0.6v-4.9l0.6-0.5
				l0.7,0.1h8.7c1.1-0.2,1.6-0.7,1.6-1.6v-2.5c0-0.9-0.4-1.5-1.3-1.8c-5.9-1.3-8.9-2.1-8.9-2.7c-1.1-1-1.7-2.5-1.7-4.5v-4.2
				c0-2.7,1.3-4.7,4.1-6L374.7,199.4z"/>
			<path d="M401.9,199.4h10.4c0.6,0,1,1.1,1.2,3.3l5.1,26c-0.1,0.3-0.3,0.4-0.6,0.4h-6.1c-0.5,0-0.9-0.8-1-2.4
				c-0.4-2.8-0.8-4.4-1-4.6h-3.1h-2.6c-0.3,0-0.7,2.2-1.3,6.6l-0.4,0.4h-6.7l-0.3-0.3c1.9-9.7,3.3-17.3,4.2-22.9l1.3-6
				C401.4,199.5,401.6,199.4,401.9,199.4z M404.5,216.5L404.5,216.5l3.9,0.1l0.2-0.2l-1.9-10.5l-0.1-0.1h-0.1
				c-0.3,0-0.6,1.2-0.9,3.5C404.8,213.3,404.5,215.7,404.5,216.5z"/>
			<path d="M426,199.4h19.5c0.4,0,0.6,0.3,0.6,0.8v4.6c0,0.6-0.3,0.9-0.9,0.9h-11l-0.3,0.3v5.3c0,0.2,0.1,0.4,0.3,0.6h1.2h7.3
				c0.3,0.1,0.4,0.3,0.4,0.7v5.1c0,0.5-0.2,0.7-0.7,0.7h-8.3l-0.2,0.2v10.1l-0.3,0.3H426c-0.2,0-0.3-0.5-0.4-1.4l0.1-27.4l-0.1-0.1
				v-0.1C425.7,199.6,425.9,199.4,426,199.4z"/>
			<path d="M453.5,199.4h17.1l0.3,0.3v4.4c0,0.5-0.2,0.7-0.7,0.7h-9.8c-0.4,0-0.6,0.2-0.6,0.6v5.1l0.3,0.3h8.3
				c0.6,0,0.9,0.2,0.9,0.7v4.2c0,0.4-0.2,0.6-0.6,0.6h-8.3c-0.4,0-0.6,0.2-0.6,0.6v4.9c0,1.1,0.9,1.7,2.6,1.7h8.3
				c0.5,0,0.7,0.2,0.7,0.7v4.4l-0.3,0.3h-12.7c-1.9-0.5-3.3-1.5-4.2-3c-0.7-1.3-1-2.6-1-3.9v-21.6
				C453.1,199.8,453.2,199.4,453.5,199.4z"/>
			<path d="M479.1,199.4h18.7l0.3,0.3l0,4.6c-0.1,0.5-0.3,0.8-0.7,0.8h-4.8c-0.5,0-0.7,0.2-0.7,0.7v22.4c0,0.5-0.2,0.8-0.6,0.8h-5.9
				c-0.5,0-0.7-0.3-0.7-1v-17.9v-4.6l-0.6-0.4h-4.7c-0.7,0-1-0.2-1-0.5v-4.2v-0.3C478.4,199.6,478.7,199.4,479.1,199.4z"/>
			<path d="M505,199.4h7.3c0.5,0,1.2,1.1,2.3,3.3l3.2,5.1h0.2c3.1-5.5,4.7-8.3,4.8-8.3l0.4-0.1h7.3v0.3c-6.1,10.5-9.2,16-9.3,16.3
				v12.7l-0.3,0.3h-6.3l-0.3-0.3V216c-0.1-0.5-3.2-5.9-9.3-16.3V199.4z"/>
			<path d="M578,199.4h12.6l0.3,0.3v4.6c0,0.4-0.1,0.6-0.4,0.7h-9c-1.1,0.3-1.6,0.9-1.6,1.7v2.1c0,1.1,1,1.8,3,2.1
				c0.5,0,2.6,0.5,6.2,1.5c1.8,1.1,2.7,2.8,2.7,5.3v4.1c0,3.3-1.4,5.5-4.2,6.7l-2.5,0.5H574c-0.4,0-0.7-0.2-0.9-0.6v-4.9l0.6-0.5
				l0.7,0.1h8.7c1.1-0.2,1.6-0.7,1.6-1.6v-2.5c0-0.9-0.4-1.5-1.3-1.8c-5.9-1.3-8.9-2.1-8.9-2.7c-1.1-1-1.7-2.5-1.7-4.5v-4.2
				c0-2.7,1.3-4.7,4.1-6L578,199.4z"/>
			<path d="M605.6,199.4h11.2c0.6,0,0.9,0.4,0.9,1.1v4.1c0,0.7-0.4,1.1-1.1,1.1h-9.3c-0.5,0-0.8,0.2-0.8,0.8l0,15.3
				c0.1,0.6,0.4,1,1,1.1h9.3c0.6,0,0.9,0.2,0.9,0.7v4.6c0,0.5-0.2,0.8-0.6,0.8h-12.6c-1.3-0.3-2.5-1-3.7-2.1c-1.3-1.4-1.9-3-1.9-5
				l0-15.6l0-0.5c0-1.4,0.6-2.8,1.9-4.3c1.5-1.3,3-2,4.5-2L605.6,199.4z"/>
			<path d="M625,199.4h13.4c1.7,0.4,3.1,1.3,4.1,2.6c0.8,0.9,1.2,2.5,1.2,4.9v2.3c0,2.3-0.4,3.7-1.2,4.4l-0.4,0.5v0.2
				c1.1,1.1,1.7,2.5,1.7,4.3v9.8c-0.2,0.4-0.4,0.6-0.8,0.6h-5.5c-0.5,0-0.8-0.3-0.8-0.9v-9.6c-0.2-1.1-0.8-1.7-1.7-1.7h-2.8
				l-0.4,0.4V228c0,0.7-0.3,1.1-0.8,1.1h-5.6c-0.4,0-0.6-0.3-0.8-0.9l-0.1-28.5L625,199.4z M631.9,205.4v5.8l0.3,0.3h3.1
				c0.8,0,1.3-0.6,1.5-1.8v-3.2c-0.2-1.1-0.9-1.6-2-1.6h-2.5L631.9,205.4z"/>
			<path d="M651.5,199.4h6.1c0.3,0.1,0.4,0.4,0.4,0.9l-0.1,21.4c0.3,1.1,0.9,1.6,1.7,1.6h2c0.5,0,1-0.4,1.5-1.2v-21.8
				c0-0.5,0.1-0.8,0.4-0.9h6.1c0.5,0,0.7,0.3,0.7,0.8v22.1c0,2.5-1.2,4.4-3.5,5.9l-2.3,0.8h-8.1c-2.2-0.6-3.7-1.6-4.5-3
				c-0.3,0-0.6-1.2-1-3.6l-0.1-22.4C650.9,199.6,651.2,199.4,651.5,199.4z"/>
			<path d="M678,199.4h18.7l0.3,0.3l0,4.6c-0.1,0.5-0.3,0.8-0.7,0.8h-4.8c-0.5,0-0.7,0.2-0.7,0.7v22.4c0,0.5-0.2,0.8-0.6,0.8h-5.9
				c-0.5,0-0.7-0.3-0.7-1v-17.9v-4.6l-0.6-0.4h-4.7c-0.7,0-1-0.2-1-0.5v-4.2v-0.3C677.4,199.6,677.6,199.4,678,199.4z"/>
			<path d="M704.4,199.4h6.3c0.3,0.1,0.4,0.4,0.4,0.9v28.5l-0.3,0.3h-6.4c-0.3-0.1-0.4-0.4-0.4-0.9v-27.9
				C704,199.8,704.1,199.5,704.4,199.4z"/>
			<path d="M718.4,199.4h9.5c0.4,0.3,1.3,2.7,2.7,7.1l3.3,9.7h0.3l0-16c0.1-0.5,0.3-0.8,0.4-0.8h6.7l0.3,0.3v29l-0.3,0.3h-9.2
				c-0.4,0-0.7-0.5-0.9-1.4l-5.2-15.5h-0.3v0.9v15.2c0,0.5-0.2,0.8-0.6,0.8h-6.6l-0.3-0.3v-29L718.4,199.4z"/>
			<path d="M748.6,199.4h7.3c0.5,0,1.2,1.1,2.3,3.3l3.2,5.1h0.2c3.1-5.5,4.7-8.3,4.8-8.3l0.4-0.1h7.3v0.3c-6.1,10.5-9.2,16-9.3,16.3
				v12.7l-0.3,0.3h-6.3l-0.3-0.3V216c-0.1-0.5-3.2-5.9-9.3-16.3V199.4z"/>
			<path d="M821.5,199.4h12.6l0.3,0.3v4.6c0,0.4-0.1,0.6-0.4,0.7h-9c-1.1,0.3-1.6,0.9-1.6,1.7v2.1c0,1.1,1,1.8,3,2.1
				c0.5,0,2.6,0.5,6.2,1.5c1.8,1.1,2.7,2.8,2.7,5.3v4.1c0,3.3-1.4,5.5-4.2,6.7l-2.5,0.5h-11.2c-0.4,0-0.7-0.2-0.9-0.6v-4.9l0.6-0.5
				l0.7,0.1h8.7c1.1-0.2,1.6-0.7,1.6-1.6v-2.5c0-0.9-0.4-1.5-1.3-1.8c-5.9-1.3-8.9-2.1-8.9-2.7c-1.1-1-1.7-2.5-1.7-4.5v-4.2
				c0-2.7,1.3-4.7,4.1-6L821.5,199.4z"/>
			<path d="M842.8,199.4h17.1l0.3,0.3v4.4c0,0.5-0.2,0.7-0.7,0.7h-9.8c-0.4,0-0.6,0.2-0.6,0.6v5.1l0.3,0.3h8.3
				c0.6,0,0.9,0.2,0.9,0.7v4.2c0,0.4-0.2,0.6-0.6,0.6h-8.3c-0.4,0-0.6,0.2-0.6,0.6v4.9c0,1.1,0.9,1.7,2.6,1.7h8.3
				c0.5,0,0.7,0.2,0.7,0.7v4.4l-0.3,0.3h-12.7c-1.9-0.5-3.3-1.5-4.2-3c-0.7-1.3-1-2.6-1-3.9v-21.6
				C842.4,199.8,842.5,199.4,842.8,199.4z"/>
			<path d="M868,199.4h13.4c1.7,0.4,3.1,1.3,4.1,2.6c0.8,0.9,1.2,2.5,1.2,4.9v2.3c0,2.3-0.4,3.7-1.2,4.4l-0.4,0.5v0.2
				c1.1,1.1,1.7,2.5,1.7,4.3v9.8c-0.2,0.4-0.4,0.6-0.8,0.6h-5.5c-0.5,0-0.8-0.3-0.8-0.9v-9.6c-0.2-1.1-0.8-1.7-1.7-1.7h-2.8
				l-0.4,0.4V228c0,0.7-0.3,1.1-0.8,1.1h-5.6c-0.4,0-0.6-0.3-0.8-0.9l-0.1-28.5L868,199.4z M874.9,205.4v5.8l0.3,0.3h3.1
				c0.8,0,1.3-0.6,1.5-1.8v-3.2c-0.2-1.1-0.9-1.6-2-1.6h-2.5L874.9,205.4z"/>
			<path d="M894.1,199.4h6.1c0.3,0,0.9,2.8,1.9,8.5l2.6,12.7l0.1,0.1h0.2c0.3,0,0.7-1.6,1.2-4.7c1.6-8.9,2.7-14.4,3.3-16.5l0.4-0.1
				h5.8l0.2,0.2v0.1l-5.2,25.4c-0.5,2.6-0.9,4-1.2,4h-9c-0.3,0-0.9-2.2-1.7-6.6c-2.2-9.9-3.9-17.4-4.9-22.6v-0.1L894.1,199.4z"/>
			<path d="M923.3,199.4h6.3c0.3,0.1,0.4,0.4,0.4,0.9v28.5l-0.3,0.3h-6.4c-0.3-0.1-0.4-0.4-0.4-0.9v-27.9
				C922.9,199.8,923,199.5,923.3,199.4z"/>
			<path d="M943.8,199.4h11.2c0.6,0,0.9,0.4,0.9,1.1v4.1c0,0.7-0.4,1.1-1.1,1.1h-9.3c-0.5,0-0.8,0.2-0.8,0.8l0,15.3
				c0.1,0.6,0.4,1,1,1.1h9.3c0.6,0,0.9,0.2,0.9,0.7v4.6c0,0.5-0.2,0.8-0.6,0.8h-12.6c-1.3-0.3-2.5-1-3.7-2.1c-1.3-1.4-1.9-3-1.9-5
				l0-15.6l0-0.5c0-1.4,0.6-2.8,1.9-4.3c1.5-1.3,3-2,4.5-2L943.8,199.4z"/>
			<path d="M963.2,199.4h17.1l0.3,0.3v4.4c0,0.5-0.2,0.7-0.7,0.7h-9.8c-0.4,0-0.6,0.2-0.6,0.6v5.1l0.3,0.3h8.3
				c0.6,0,0.9,0.2,0.9,0.7v4.2c0,0.4-0.2,0.6-0.6,0.6h-8.3c-0.4,0-0.6,0.2-0.6,0.6v4.9c0,1.1,0.9,1.7,2.6,1.7h8.3
				c0.5,0,0.7,0.2,0.7,0.7v4.4l-0.3,0.3h-12.7c-1.9-0.5-3.3-1.5-4.2-3c-0.7-1.3-1-2.6-1-3.9v-21.6
				C962.8,199.8,963,199.4,963.2,199.4z"/>
		</g>
		
			<linearGradient id="SVGID_00000114758506348362371920000012331793834515259560_" gradientUnits="userSpaceOnUse" x1="513.9931" y1="179.7525" x2="601.9116" y2="264.9932">
			<stop  offset="0" style="stop-color:#EF4136"/>
			<stop  offset="0.8514" style="stop-color:#BE1E2D"/>
		</linearGradient>
		<circle style="fill:url(#SVGID_00000114758506348362371920000012331793834515259560_);" cx="550.2" cy="214.8" r="6.7"/>
		
			<linearGradient id="SVGID_00000115493018844167233920000000373063431435531439_" gradientUnits="userSpaceOnUse" x1="759.3254" y1="179.7525" x2="847.2439" y2="264.9932">
			<stop  offset="0" style="stop-color:#EF4136"/>
			<stop  offset="0.8514" style="stop-color:#BE1E2D"/>
		</linearGradient>
		<circle style="fill:url(#SVGID_00000115493018844167233920000000373063431435531439_);" cx="795.5" cy="214.8" r="6.7"/>
	</g>
</g>
</svg>
