<?xml version="1.0" encoding="utf-8"?>
<!-- Generator: Adobe Illustrator 27.0.0, SVG Export Plug-In . SVG Version: 6.00 Build 0)  -->
<svg version="1.1" id="Layer_1" xmlns="http://www.w3.org/2000/svg" xmlns:xlink="http://www.w3.org/1999/xlink" x="0px" y="0px"
	 viewBox="0 0 800 500" style="enable-background:new 0 0 800 500;" xml:space="preserve">
<style type="text/css">
	.st0{fill:url(#SVGID_1_);}
	.st1{fill:url(#SVGID_00000060011083491559499630000017742588871023858362_);}
	.st2{fill:url(#SVGID_00000003064856825763242900000002385578139455587456_);}
	.st3{fill:url(#SVGID_00000025416085972330829600000014534043795111492492_);}
	.st4{fill:url(#SVGID_00000004543604110230788420000007867969080994031531_);}
	.st5{fill:url(#SVGID_00000095320528129418456070000017385244858555505846_);}
	.st6{fill:url(#SVGID_00000126290962863956059690000001036763729612493958_);}
	.st7{fill:url(#SVGID_00000158745313108292486200000004808120901148070538_);}
	.st8{fill:url(#SVGID_00000017499698404884456360000003083925122256183969_);}
	.st9{fill:url(#SVGID_00000008839698719309538030000000611440785143765909_);}
	.st10{fill:url(#SVGID_00000062151939168159594220000013243971390997395085_);}
	.st11{fill:url(#SVGID_00000134232647408081792860000015647650301888307632_);}
	.st12{fill:url(#SVGID_00000116216622942408729940000015827497766281710239_);}
	.st13{fill:url(#SVGID_00000105392040803990884300000014598834409498399646_);}
	.st14{fill:url(#SVGID_00000044878862343895812150000000153599675811206841_);}
	.st15{fill:url(#SVGID_00000167381519780677361870000017377949935302715554_);}
	.st16{fill:url(#SVGID_00000013150813960864423660000016172621571631536056_);}
	.st17{fill:url(#SVGID_00000091013385349310267340000013132732764447876514_);}
	.st18{fill:url(#SVGID_00000173125144517484455940000016787731153914377659_);}
	.st19{fill:url(#SVGID_00000163066103356963821120000011540287682565916588_);}
	.st20{fill:url(#SVGID_00000176754156753152387360000004509191804434769073_);}
	.st21{fill:url(#SVGID_00000112608858944842012030000009036799651049893504_);}
	.st22{fill:url(#SVGID_00000015330991093403515010000013196643867929962167_);}
	.st23{fill:url(#SVGID_00000155831248685367731020000007747443121711116982_);}
	.st24{fill:url(#SVGID_00000150787590285661128910000003416003613180749236_);}
	.st25{fill:url(#SVGID_00000136375587708139333420000012740149458972376491_);}
	.st26{fill:url(#SVGID_00000100342307185158963280000000641480520186123443_);}
	.st27{fill:url(#SVGID_00000130609754751968283580000014448972889526294971_);}
	.st28{fill:url(#SVGID_00000162345684774129583000000015107312367569183623_);}
	.st29{fill:url(#SVGID_00000016783951372314661700000014944789691499147171_);}
	.st30{fill:url(#SVGID_00000061439675732428902350000015246432625109325465_);}
	.st31{fill:url(#SVGID_00000086689259378182861210000010653657573847064252_);}
	.st32{fill:url(#SVGID_00000089543585798690751040000017009779438925559450_);}
	.st33{fill:url(#SVGID_00000145033132613284062990000009307409737108233858_);}
	.st34{fill:url(#SVGID_00000114035825631876213890000007235192248859860914_);}
	.st35{fill:url(#SVGID_00000124843143741777256680000006228675877223651767_);}
	.st36{fill:url(#SVGID_00000052075455918778256900000015278414016953904770_);}
	.st37{fill:url(#SVGID_00000148640868453688693930000004310228323299236487_);}
	.st38{fill:#FFFFFF;}
	.st39{fill:url(#SVGID_00000103950414341334455990000007674839712854599305_);}
	.st40{fill:url(#SVGID_00000144297628888818964030000009004237158041382283_);}
	.st41{fill:url(#SVGID_00000103236572720092763930000000667409892022021292_);}
	.st42{fill:url(#SVGID_00000142141842630550005480000009774511492258864550_);}
	.st43{fill:url(#SVGID_00000029749217511194073330000012708030180028883083_);}
	.st44{fill:url(#SVGID_00000002364557186701509220000016934499411029008542_);}
	.st45{fill:url(#SVGID_00000080175633228401078180000008682339921802477503_);}
	.st46{fill:url(#SVGID_00000173874339576271823350000012237449632592373934_);}
	.st47{fill:url(#SVGID_00000028296303333818728190000004060009417398773892_);}
	.st48{fill:url(#SVGID_00000007386629878826870760000014987532505386207672_);}
	.st49{fill:url(#SVGID_00000052790604319634612270000014996461927300952231_);}
	.st50{fill:url(#SVGID_00000023978578684392821280000010616996706294050704_);}
	.st51{fill:url(#SVGID_00000150103595432753528470000002358353443071731380_);}
	.st52{fill:url(#SVGID_00000035517641250047387800000012318183717607700915_);}
	.st53{fill:url(#SVGID_00000116940157573355271050000016093230990018770359_);}
	.st54{fill:url(#SVGID_00000008858766386456827340000001736728517990526869_);}
	.st55{fill:url(#SVGID_00000020391826128839291610000001379040120078647958_);}
	.st56{fill:url(#SVGID_00000145032108069264129320000008193415453022193082_);}
	.st57{fill:url(#SVGID_00000156572591732791870870000017940008651097206939_);}
	.st58{fill:url(#SVGID_00000029747247551708648360000015487189837488806298_);}
	.st59{fill:url(#SVGID_00000016790045892238276320000016237355321689850774_);}
	.st60{fill:url(#SVGID_00000059992550700753196970000003619040110498511748_);}
	.st61{fill:url(#SVGID_00000073002882900865770810000014253753138617357997_);}
	.st62{fill:url(#SVGID_00000125566003840256066560000011133931704572186529_);}
	.st63{fill:url(#SVGID_00000109020279623825653000000015854957066352881554_);}
	.st64{fill:url(#SVGID_00000003816407775336502930000014868125806243856572_);}
	.st65{fill:url(#SVGID_00000006692528618793610620000003590366508447688065_);}
	.st66{fill:url(#SVGID_00000096749484277331021810000012419881546222681251_);}
	.st67{fill:url(#SVGID_00000085237397719827949400000018266320356154281379_);}
	.st68{fill:url(#SVGID_00000090987155324466977010000002313205064147336091_);}
	.st69{fill:url(#SVGID_00000157988028233252511830000017210828238071931070_);}
	.st70{fill:url(#SVGID_00000067218021256641457720000001290399708751072923_);}
	.st71{fill:url(#SVGID_00000173138895822662011940000006005538716634745269_);}
	.st72{fill:url(#SVGID_00000052798950394860833500000007184652288957421716_);}
	.st73{fill:url(#SVGID_00000011711254767281406160000013117242318901908671_);}
	.st74{fill:url(#SVGID_00000159432828255861372960000009817236498457342892_);}
	.st75{fill:url(#SVGID_00000081649211235730858950000010990974280185506233_);}
	.st76{fill:url(#SVGID_00000181063790587051191380000002637607185156708017_);}
	.st77{fill:url(#SVGID_00000161608493647768994620000004870598727424853650_);}
	.st78{fill:url(#SVGID_00000000220084183584604540000014833051802897042604_);}
	.st79{fill:url(#SVGID_00000067224171588866836540000014604330842978715825_);}
</style>
<linearGradient id="SVGID_1_" gradientUnits="userSpaceOnUse" x1="-156.7163" y1="-217.0495" x2="730.2625" y2="527.4612">
	<stop  offset="0" style="stop-color:#EF4136"/>
	<stop  offset="0.8514" style="stop-color:#BE1E2D"/>
</linearGradient>
<rect x="-9" y="-11.2" class="st0" width="821.1" height="525.4"/>
<g>
	<g>
		<path class="st38" d="M83.9,336.5h24.6l33,60.2h-20l-6-10.7H76.6l-5.8,10.7H50L83.9,336.5z M109,373.5l-13-24l-12.8,24H109z"/>
		<path class="st38" d="M149.8,336.5h52c12.7,0,18.7,1.4,22.8,5.6c3.3,3.3,4.7,7,5.3,14.7c0.2,2.8,0.4,7,0.4,9.8
			c0,5.4-0.4,11.6-0.9,15.1c-1,7.2-6.1,12.8-12.6,14.1c-3.4,0.7-6.1,0.9-12.6,0.9h-54.5V336.5z M198.8,382.4c5,0,5.3,0,7.5-0.7
			c4.4-1.4,5.6-4.5,5.6-14.9c0-12.6-2.2-15.3-12.7-15.3h-31.1v30.9H198.8z"/>
		<path class="st38" d="M270.7,336.5h24.6l33,60.2h-20l-6-10.7h-38.8l-5.8,10.7h-20.8L270.7,336.5z M295.9,373.5l-13-24l-12.8,24
			H295.9z"/>
		<path class="st38" d="M354.2,377.5c0.2,4.2,0.6,5.1,2.8,6c1.4,0.5,6.5,0.9,12.3,0.9c21.2,0,23.8-0.6,23.8-5.6
			c0-2.4-1.2-4.2-3.1-4.9c-2-0.6-2-0.6-11.5-0.7h-16.6c-11.1,0-15.7-0.6-19.6-2.6c-4.3-2.3-6.3-7-6.3-15.3
			c0-10.8,3.1-15.4,11.7-17.5c4.9-1.3,11.9-1.7,25.1-1.7c21.1,0,26,0.5,30.3,3.3c4.2,2.8,5.5,6.5,5.5,15.5h-17.9c0-5.2-1.8-6-13.6-6
			c-5.9,0-13.7,0.2-16.6,0.4c-4.9,0.4-6.5,1.6-6.5,5.1c0,2.5,1.3,4.2,3.9,4.8c1.1,0.3,1.4,0.4,7.4,0.5h17.1c1.6,0,9.8,0.3,12.8,0.5
			c11.5,0.5,16,5.6,16,17.7c0,11.1-3.3,16-12.1,17.9c-4.5,1-13.5,1.5-26.6,1.5c-20.9,0-25.5-0.5-30.8-3.2c-3.7-1.8-5.6-6.4-5.6-13.5
			c0-0.5,0-1.7,0.1-3H354.2z"/>
		<path class="st38" d="M442.4,377.5c0.2,4.2,0.6,5.1,2.8,6c1.4,0.5,6.5,0.9,12.3,0.9c21.2,0,23.8-0.6,23.8-5.6
			c0-2.4-1.2-4.2-3.1-4.9c-2-0.6-2-0.6-11.5-0.7H450c-11.1,0-15.7-0.6-19.6-2.6c-4.3-2.3-6.3-7-6.3-15.3c0-10.8,3.1-15.4,11.7-17.5
			c4.9-1.3,11.9-1.7,25.1-1.7c21.1,0,26,0.5,30.3,3.3c4.2,2.8,5.5,6.5,5.5,15.5h-17.9c0-5.2-1.8-6-13.6-6c-5.9,0-13.7,0.2-16.6,0.4
			c-4.9,0.4-6.5,1.6-6.5,5.1c0,2.5,1.3,4.2,3.9,4.8c1.1,0.3,1.4,0.4,7.4,0.5h17.1c1.6,0,9.8,0.3,12.8,0.5c11.5,0.5,16,5.6,16,17.7
			c0,11.1-3.3,16-12.1,17.9c-4.5,1-13.5,1.5-26.6,1.5c-20.9,0-25.5-0.5-30.8-3.2c-3.7-1.8-5.6-6.4-5.6-13.5c0-0.5,0-1.7,0.1-3H442.4
			z"/>
		<path class="st38" d="M540.4,336.5h24.6l33,60.2h-20l-6-10.7h-38.8l-5.8,10.7h-20.8L540.4,336.5z M565.5,373.5l-13-24l-12.8,24
			H565.5z"/>
		<path class="st38" d="M606.3,336.5h63.9v13.6h-45.7v12h43.3v13.6h-43.3v21h-18.2V336.5z"/>
		<path class="st38" d="M749.4,336.5v13.6h-48.7v10.4h45.9v11.9h-45.9v10.7H750v13.6h-67.4v-60.2H749.4z"/>
	</g>
	<path class="st38" d="M154.8,426.1c-0.4-0.5-1-0.8-1.7-1.1c-0.7-0.2-1.6-0.3-2.7-0.3h-6.2c-0.6,0-1-0.1-1.3-0.4
		c-0.2-0.3-0.4-0.7-0.4-1.3c0-0.6,0.1-1.1,0.4-1.3c0.2-0.3,0.7-0.4,1.3-0.4h11.3V417H143c-1.1,0-2.1,0.1-2.8,0.4
		c-0.7,0.2-1.3,0.6-1.7,1.1c-0.4,0.5-0.7,1.1-0.9,1.8c-0.2,0.7-0.3,1.5-0.3,2.5c0,1,0.1,1.8,0.3,2.6c0.2,0.7,0.5,1.3,0.9,1.8
		c0.4,0.5,1,0.8,1.8,1.1c0.7,0.2,1.6,0.4,2.7,0.4h6.3c0.6,0,1,0.1,1.2,0.3c0.3,0.2,0.4,0.7,0.4,1.3c0,0.6-0.1,1.1-0.4,1.4
		c-0.2,0.3-0.7,0.4-1.2,0.4h-11.8v4.3h12.8c1.1,0,2-0.1,2.7-0.4c0.7-0.2,1.3-0.6,1.7-1.1c0.4-0.5,0.7-1.1,0.9-1.8
		c0.2-0.7,0.3-1.6,0.3-2.5s-0.1-1.8-0.3-2.5C155.5,427.2,155.2,426.6,154.8,426.1z"/>
	<path class="st38" d="M167.9,417l-9.5,19.3h5.4l1.8-3.8H176l1.8,3.8h5.2l-9.5-19.3H167.9z M167.5,428.6l3.3-7l3.3,7H167.5z"/>
	<polygon class="st38" points="187,436.3 192.2,436.3 192.2,429 204.2,429 204.2,424.8 192.2,424.8 192.2,421.2 204.2,421.2 
		204.2,417 187,417 	"/>
	<polygon class="st38" points="214.3,428.5 226.9,428.5 226.9,424.8 214.3,424.8 214.3,421.2 226.9,421.2 226.9,417 209.1,417 
		209.1,436.3 227,436.3 227,432.1 214.3,432.1 	"/>
	<polygon class="st38" points="230.8,421.2 237.7,421.2 237.7,436.3 242.9,436.3 242.9,421.2 249.7,421.2 249.7,417 230.8,417 	"/>
	<polygon class="st38" points="263.2,423.7 258.1,417 252.5,417 260.5,427.8 260.5,436.3 265.7,436.3 265.7,427.8 273.9,417 
		268.3,417 	"/>
	<path class="st38" d="M326,426.1c-0.4-0.5-1-0.8-1.7-1.1c-0.7-0.2-1.6-0.3-2.7-0.3h-6.2c-0.6,0-1-0.1-1.3-0.4
		c-0.2-0.3-0.4-0.7-0.4-1.3c0-0.6,0.1-1.1,0.4-1.3c0.2-0.3,0.7-0.4,1.3-0.4h11.3V417h-12.3c-1.1,0-2.1,0.1-2.8,0.4
		c-0.7,0.2-1.3,0.6-1.7,1.1c-0.4,0.5-0.7,1.1-0.9,1.8c-0.2,0.7-0.3,1.5-0.3,2.5c0,1,0.1,1.8,0.3,2.6c0.2,0.7,0.5,1.3,0.9,1.8
		c0.4,0.5,1,0.8,1.8,1.1c0.7,0.2,1.6,0.4,2.7,0.4h6.3c0.6,0,1,0.1,1.2,0.3c0.3,0.2,0.4,0.7,0.4,1.3c0,0.6-0.1,1.1-0.4,1.4
		c-0.2,0.3-0.7,0.4-1.2,0.4h-11.8v4.3h12.8c1.1,0,2-0.1,2.7-0.4c0.7-0.2,1.3-0.6,1.7-1.1c0.4-0.5,0.7-1.1,0.9-1.8
		c0.2-0.7,0.3-1.6,0.3-2.5s-0.1-1.8-0.3-2.5C326.7,427.2,326.4,426.6,326,426.1z"/>
	<path class="st38" d="M336,417.4c-1.1,0.3-2,0.7-2.7,1.5c-0.7,0.7-1.2,1.7-1.6,2.9c-0.4,1.3-0.5,2.9-0.5,4.9c0,2,0.2,3.6,0.5,4.9
		c0.4,1.3,0.9,2.2,1.6,2.9c0.7,0.7,1.6,1.2,2.7,1.4c1.1,0.3,2.3,0.4,3.8,0.4h9V432h-9c-0.6,0-1.2-0.1-1.6-0.2s-0.8-0.4-1.1-0.8
		c-0.3-0.4-0.5-0.9-0.6-1.7c-0.1-0.7-0.2-1.6-0.2-2.7c0-1.1,0.1-2,0.2-2.7c0.1-0.7,0.3-1.3,0.6-1.7c0.3-0.4,0.6-0.7,1.1-0.8
		c0.4-0.1,1-0.2,1.6-0.2h9V417h-9C338.3,417,337.1,417.1,336,417.4z"/>
	<path class="st38" d="M371.4,427.6c0.6-0.5,1-1.1,1.3-1.8c0.3-0.7,0.5-1.7,0.5-2.8c0-1.3-0.2-2.3-0.6-3.1c-0.4-0.8-1-1.4-1.6-1.8
		c-0.7-0.4-1.5-0.7-2.4-0.9c-0.9-0.1-1.8-0.2-2.8-0.2h-12.1v19.3h5.2v-6.4h7.3c0.8,0,1.4,0.1,1.6,0.4c0.3,0.2,0.4,0.7,0.4,1.3v4.8
		h5.2V431c0-0.9-0.2-1.6-0.5-2.1C372.5,428.3,372,427.9,371.4,427.6z M368.1,424.8c-0.1,0.3-0.3,0.6-0.5,0.7
		c-0.2,0.2-0.4,0.3-0.7,0.4c-0.3,0.1-0.6,0.1-0.9,0.1h-7.1v-4.8h7.1c0.3,0,0.6,0,0.9,0.1c0.3,0.1,0.5,0.2,0.7,0.4
		c0.2,0.2,0.4,0.4,0.5,0.7c0.1,0.3,0.2,0.7,0.2,1.2C368.2,424.1,368.2,424.5,368.1,424.8z"/>
	<path class="st38" d="M392.4,428.7c0,0.6-0.1,1.1-0.2,1.6c-0.1,0.4-0.3,0.8-0.6,1.1c-0.3,0.3-0.7,0.5-1.1,0.6
		c-0.5,0.1-1.1,0.2-1.7,0.2H387c-0.7,0-1.3-0.1-1.8-0.2c-0.5-0.1-0.9-0.3-1.1-0.6c-0.3-0.3-0.5-0.6-0.6-1.1c-0.1-0.4-0.2-1-0.2-1.6
		V417h-5.1v11.7c0,1.3,0.2,2.5,0.5,3.4c0.3,1,0.9,1.8,1.6,2.4c0.7,0.6,1.6,1.1,2.7,1.4c1.1,0.3,2.4,0.4,4,0.4h1.7
		c1.5,0,2.9-0.1,4-0.4c1.1-0.3,2-0.7,2.7-1.4c0.7-0.6,1.2-1.4,1.6-2.4c0.3-1,0.5-2.1,0.5-3.4V417h-5V428.7z"/>
	<polygon class="st38" points="401.4,421.2 408.2,421.2 408.2,436.3 413.4,436.3 413.4,421.2 420.2,421.2 420.2,417 401.4,417 	"/>
	<rect x="424.4" y="417" class="st38" width="5.2" height="19.3"/>
	<polygon class="st38" points="450.9,430.7 441.3,417 435.2,417 435.2,436.3 440,436.3 440,423.1 449.4,436.3 455.7,436.3 
		455.7,417 450.9,417 	"/>
	<polygon class="st38" points="470.3,423.7 465.2,417 459.5,417 467.6,427.8 467.6,436.3 472.8,436.3 472.8,427.8 481,417 
		475.4,417 	"/>
	<path class="st38" d="M533,426.1c-0.4-0.5-1-0.8-1.7-1.1c-0.7-0.2-1.6-0.3-2.7-0.3h-6.2c-0.6,0-1-0.1-1.3-0.4
		c-0.2-0.3-0.4-0.7-0.4-1.3c0-0.6,0.1-1.1,0.4-1.3c0.2-0.3,0.7-0.4,1.3-0.4h11.3V417h-12.3c-1.1,0-2.1,0.1-2.8,0.4
		c-0.7,0.2-1.3,0.6-1.7,1.1c-0.4,0.5-0.7,1.1-0.9,1.8c-0.2,0.7-0.3,1.5-0.3,2.5c0,1,0.1,1.8,0.3,2.6c0.2,0.7,0.5,1.3,0.9,1.8
		c0.4,0.5,1,0.8,1.8,1.1c0.7,0.2,1.6,0.4,2.7,0.4h6.3c0.6,0,1,0.1,1.2,0.3c0.3,0.2,0.4,0.7,0.4,1.3c0,0.6-0.1,1.1-0.4,1.4
		c-0.2,0.3-0.7,0.4-1.2,0.4h-11.8v4.3h12.8c1.1,0,2-0.1,2.7-0.4c0.7-0.2,1.3-0.6,1.7-1.1c0.4-0.5,0.7-1.1,0.9-1.8
		c0.2-0.7,0.3-1.6,0.3-2.5s-0.1-1.8-0.3-2.5C533.8,427.2,533.5,426.6,533,426.1z"/>
	<polygon class="st38" points="544.2,428.5 556.8,428.5 556.8,424.8 544.2,424.8 544.2,421.2 556.9,421.2 556.9,417 539,417 
		539,436.3 556.9,436.3 556.9,432.1 544.2,432.1 	"/>
	<path class="st38" d="M579.8,427.6c0.6-0.5,1-1.1,1.3-1.8c0.3-0.7,0.5-1.7,0.5-2.8c0-1.3-0.2-2.3-0.6-3.1c-0.4-0.8-1-1.4-1.6-1.8
		c-0.7-0.4-1.5-0.7-2.4-0.9c-0.9-0.1-1.8-0.2-2.8-0.2h-12.1v19.3h5.2v-6.4h7.3c0.8,0,1.4,0.1,1.6,0.4c0.3,0.2,0.4,0.7,0.4,1.3v4.8
		h5.2V431c0-0.9-0.2-1.6-0.5-2.1C580.9,428.3,580.4,427.9,579.8,427.6z M576.5,424.8c-0.1,0.3-0.3,0.6-0.5,0.7
		c-0.2,0.2-0.4,0.3-0.7,0.4c-0.3,0.1-0.6,0.1-0.9,0.1h-7.1v-4.8h7.1c0.3,0,0.6,0,0.9,0.1c0.3,0.1,0.5,0.2,0.7,0.4
		c0.2,0.2,0.4,0.4,0.5,0.7c0.1,0.3,0.2,0.7,0.2,1.2C576.6,424.1,576.6,424.5,576.5,424.8z"/>
	<polygon class="st38" points="595.9,431.1 589.5,417 583.8,417 593.2,436.3 598.8,436.3 608.3,417 602.5,417 	"/>
	<rect x="612.3" y="417" class="st38" width="5.2" height="19.3"/>
	<path class="st38" d="M627.1,417.4c-1.1,0.3-2,0.7-2.7,1.5c-0.7,0.7-1.2,1.7-1.6,2.9c-0.4,1.3-0.5,2.9-0.5,4.9c0,2,0.2,3.6,0.5,4.9
		c0.4,1.3,0.9,2.2,1.6,2.9c0.7,0.7,1.6,1.2,2.7,1.4c1.1,0.3,2.3,0.4,3.8,0.4h9V432h-9c-0.6,0-1.2-0.1-1.6-0.2s-0.8-0.4-1.1-0.8
		c-0.3-0.4-0.5-0.9-0.6-1.7c-0.1-0.7-0.2-1.6-0.2-2.7c0-1.1,0.1-2,0.2-2.7c0.1-0.7,0.3-1.3,0.6-1.7c0.3-0.4,0.6-0.7,1.1-0.8
		c0.4-0.1,1-0.2,1.6-0.2h9V417h-9C629.4,417,628.2,417.1,627.1,417.4z"/>
	<polygon class="st38" points="650,428.5 662.6,428.5 662.6,424.8 650,424.8 650,421.2 662.6,421.2 662.6,417 644.8,417 
		644.8,436.3 662.7,436.3 662.7,432.1 650,432.1 	"/>
	<path class="st38" d="M290.7,422.1c-2.7,0-4.8,2.2-4.8,4.8c0,2.7,2.2,4.8,4.8,4.8c2.7,0,4.8-2.2,4.8-4.8
		C295.5,424.2,293.4,422.1,290.7,422.1z"/>
	<path class="st38" d="M496.4,422.1c-2.7,0-4.8,2.2-4.8,4.8c0,2.7,2.2,4.8,4.8,4.8c2.7,0,4.8-2.2,4.8-4.8
		C501.2,424.2,499.1,422.1,496.4,422.1z"/>
	<path class="st38" d="M304.2,199.3c0.9-0.9,1.6-2.1,1.6-3.5c0-2.6-2.1-4.8-4.8-4.8s-4.8,2.1-4.8,4.8c0,1.4,0.6,2.6,1.6,3.5
		c0.9,0.8,2,1.3,3.2,1.3C302.3,200.6,303.4,200.1,304.2,199.3z"/>
	<path class="st38" d="M535.4,174.1l-52-100.7c-3.1-6-9.2-9.7-15.9-9.7H462L432.7,130c4.4,0.2,8.3,0.6,11.5,1.1l0,0
		c0.7,0.1,1.4,0.3,2.1,0.4c1.4,0.3,2.6,0.5,3.6,0.8c0,0,0.1,0,0.1,0c2.4,0.6,3.7,1,3.7,1l-0.1,0c9.4,2.8,18.2,7.4,26,13.6l18.3,14.5
		l3.1,2.5c13.8,1.9,30.6,9.1,37.9,17.2L535.4,174.1z"/>
	<path class="st38" d="M352.1,129.9h1h0.2h3.2h11.6h14h3.8h32.5l29.2-66.2H332.1c-10.2,0-19.5,5.9-23.9,15.1l-27.2,57l21.8,47.9
		c6,0.9,10.6,6,10.6,12.3c-0.1,6.4-5.3,11.9-11.7,12.2c-7.1,0.3-12.9-5.3-12.9-12.3c0-2.6,0.8-5.1,2.3-7.1l-2.3-5.3l-14.9-32.8
		l-0.6,1.3l0,0v0l0,0l-59.5,123.6c-4.4,8.7,1.9,18.9,11.6,18.9h36.4h57.5h15.3h11.3l17.1-37.9h-74.3l6-13.1h56.9h10.7h6.5h17.5h0.1
		c0,0.1,0,0.1,0,0c0.1-0.2,0.2-0.9,0.4-2c1.4-6,2.2-12.7,2.2-19.9c0-24.2-9-43.9-20.1-43.9c-11.1,0-20.1,19.6-20.1,43.9
		c0,3.7,0.2,7.2,0.6,10.6l-0.2-0.1h-13.8h-81.2l6-13.1h79.4c0.2-11.4,2.3-21.5,5.6-29.6c5.3-11.7,13.1-15,13.1-15L345,142.4
		c0,0,0,0,0,0c-0.3-0.8-1-1.4-1.9-1.8c-2.8-1.1-10.3-3.3-23.4-1.4c-8.3,1.4-18.1,4.6-26.3,9.9l-1.5-3.3c0.1-0.1,0.2-0.1,0.3-0.2
		C294.6,143.6,313.7,129.9,352.1,129.9z M335,143.8l10.8,23l-1.9,0.6l-1.4-3c-2.2-4.7-7.1-7.7-12.3-7.5c-6.3,0.3-11.4,0.9-11.9,3.5
		c-0.9,4.4,3.6,7.3,7.7,9.1l-1,1.3c0,0,0,0,0,0l-22.8-2c0,0,0,0,0,0l-6.6-14.9C300,151.2,316.6,141.8,335,143.8z"/>
	<path class="st38" d="M371,173.1c6.4,1,11.9,6.2,16,14.4c0.5-0.1,1.3-0.2,2.4-0.4c4.5-0.6,13.4-0.9,23.4,2.6c8.6,3,17.9,8.9,26,20
		c2.9,3.7,5.4,6.4,7.8,8.5c0.6,0.5,0.2,1.4-0.5,1.4l-17.2,0l-0.8,0l-8.6-0.4c-0.2-0.2-0.4-0.3-0.7-0.4l-8.9-17.8
		c-1.7-3.4-4.9-5.8-8.7-6.5c-1.7-0.3-3.2,1.2-2.9,2.9l1.7,8.4l4.7,23.2c0.4,1.9,2.1,3.3,4,3.3h3.7c1.9,0,3.6-1,4.5-2.7l2.6-4.8
		c0.1-0.2,0.2-0.5,0.3-0.7h44.7h8.4h65.7h14.2c-0.4,0.7-1,1.5-1.6,2.3c-0.3,0.4-0.7,0.9-1,1.3c-0.1,0.1-0.1,0.1-0.2,0.2
		c-4.8,5.6-11,9.8-17.9,12c-3.9,1.3-8,2-12.2,2l-121.7-0.2l24.5,53H574c10.3,0,17-10.9,12.3-20.1l-5.4-10.6l-17.3-34l-1.9-3.7
		l-11.6-22.6c-5-9.8-15-15.9-26-15.9h-26.2h-41.4h-12.7c0,0-32.1,1.7-53-8.8l0,0c-0.4-0.2-0.8-0.3-1.1-0.5
		c-5.2-2.6-9.4-6.2-12.7-9.7c-2.5-2.6-4.4-5.1-5.8-7.1h18c1.4,0,2.8,0,4.2,0c13.4,0,38.2,0,54.3,0c2.9,0,5.8,0,8.7,0
		c4.5,0,8.9,0,13.1,0.2c3.5,0.1,6.7,0.3,9.3,0.4c3.5,0.2,6.1,0.3,7.8,0.4c1,0.1,1.7,0.1,1.9,0.1c0.1,0,0.1,0,0.2,0l-1.4-1.1
		l-11.7-9.3c-9.1-7.2-19.9-12.1-31.3-14.3c-4.4-0.8-8.9-1.3-13.4-1.3h-3.1h-76.4c-0.6,0-1,0.6-0.7,1.1l16.1,35.2
		C366.6,172.9,369.1,172.6,371,173.1z M485.3,161.4C485.3,161.5,485.3,161.5,485.3,161.4h-0.1H485.3z"/>
</g>
</svg>
