<?xml version="1.0" encoding="utf-8"?>
<!-- Generator: Adobe Illustrator 27.0.0, SVG Export Plug-In . SVG Version: 6.00 Build 0)  -->
<svg version="1.1" id="Layer_1" xmlns="http://www.w3.org/2000/svg" xmlns:xlink="http://www.w3.org/1999/xlink" x="0px" y="0px"
	 viewBox="0 0 1000 300" style="enable-background:new 0 0 1000 300;" xml:space="preserve">
<style type="text/css">
	.st0{fill:url(#SVGID_1_);}
	.st1{fill:url(#SVGID_00000133511309970161014880000010700060105080223117_);}
	.st2{fill:url(#SVGID_00000121267916504188474720000002812357605768443791_);}
	.st3{fill:url(#SVGID_00000065752673838137503930000015681763808316212625_);}
	.st4{fill:url(#SVGID_00000121958229272292157070000005930064531005232805_);}
	.st5{fill:url(#SVGID_00000103982022911372106660000017390849915302929058_);}
	.st6{fill:url(#SVGID_00000061470315924176349080000017527371079717123721_);}
	.st7{fill:url(#SVGID_00000065040778642801546770000000200785727350873510_);}
	.st8{fill:url(#SVGID_00000080196385880388159850000014143973218490168750_);}
	.st9{fill:url(#SVGID_00000093165264728852652730000002954441617246471608_);}
	.st10{fill:url(#SVGID_00000139279418560237583710000011071277142627825815_);}
	.st11{fill:url(#SVGID_00000029743467229983866620000004404134490499217562_);}
	.st12{fill:url(#SVGID_00000002346533163073013010000006643587735367257738_);}
	.st13{fill:url(#SVGID_00000057850345986042518590000003824268479541983654_);}
	.st14{fill:url(#SVGID_00000031194221117785022110000010925703856530357925_);}
	.st15{fill:url(#SVGID_00000134214986883166521430000017421957958218839483_);}
	.st16{fill:url(#SVGID_00000155844432110917354070000006980930647222032318_);}
	.st17{fill:url(#SVGID_00000111181909116086159170000015319547075719396530_);}
	.st18{fill:url(#SVGID_00000049186667772190658940000008276248521411589767_);}
	.st19{fill:url(#SVGID_00000147909281914620318570000001393480113541441438_);}
	.st20{fill:url(#SVGID_00000047040393508053379730000013525903610661951137_);}
	.st21{fill:url(#SVGID_00000125595581863374387780000003845519803106161319_);}
	.st22{fill:url(#SVGID_00000183952958380082840180000013518042574190624445_);}
	.st23{fill:url(#SVGID_00000111890064591136145340000003982423061535820939_);}
	.st24{fill:url(#SVGID_00000183244468009684295170000015733387547559065488_);}
	.st25{fill:url(#SVGID_00000086682301861713642790000012306431835390899862_);}
	.st26{fill:url(#SVGID_00000091733102845414251080000016725980873462445466_);}
	.st27{fill:url(#SVGID_00000038392188014423752450000016488160884212321208_);}
	.st28{fill:url(#SVGID_00000094592110198029859510000013771566635416539309_);}
	.st29{fill:url(#SVGID_00000160154574361754166310000011293465046782319235_);}
	.st30{fill:url(#SVGID_00000107568760264123852400000003652550934795561904_);}
	.st31{fill:url(#SVGID_00000021094676241249286150000000364168940224673707_);}
	.st32{fill:url(#SVGID_00000003805206910185057890000011312351900783460018_);}
	.st33{fill:url(#SVGID_00000008143087495670597180000005914679274260115129_);}
	.st34{fill:url(#SVGID_00000032611480227906344090000008161344192703777187_);}
	.st35{fill:url(#SVGID_00000043444949375363749960000004142163510717875113_);}
	.st36{fill:url(#SVGID_00000004521746568900941010000009173162008305442954_);}
	.st37{fill:url(#SVGID_00000119810095255677638660000000924674485233928596_);}
	.st38{fill:#FFFFFF;}
	.st39{fill:url(#SVGID_00000147909509248232456110000009865667550347652009_);}
	.st40{fill:url(#SVGID_00000088813176933160274630000012759966400352577713_);}
	.st41{fill:url(#SVGID_00000101809489154454539580000016270173709649327022_);}
	.st42{fill:url(#SVGID_00000038383914732452618930000012944392447948518070_);}
	.st43{fill:url(#SVGID_00000098201109266756561790000013821890881483894658_);}
	.st44{fill:url(#SVGID_00000155132625460187545170000005588870152922167962_);}
	.st45{fill:url(#SVGID_00000005255101256805132510000017870663016026621350_);}
	.st46{fill:url(#SVGID_00000021821468705586286880000015340271091598950796_);}
	.st47{fill:url(#SVGID_00000038414503482321665550000001903683634269158024_);}
	.st48{fill:url(#SVGID_00000078033052951440913350000015518083948595408261_);}
	.st49{fill:url(#SVGID_00000018234713021390388500000009665754254785101709_);}
	.st50{fill:url(#SVGID_00000112608954913687345240000013392510365268438912_);}
	.st51{fill:url(#SVGID_00000121245669919914313440000003695559353116423297_);}
	.st52{fill:url(#SVGID_00000062898864289373468150000015118395650752208305_);}
	.st53{fill:url(#SVGID_00000000203239107287384980000012342706828421205669_);}
	.st54{fill:url(#SVGID_00000097482433215507035930000006528909263972300184_);}
	.st55{fill:url(#SVGID_00000072243024905982282360000006160340368155159730_);}
	.st56{fill:url(#SVGID_00000137835803005578133460000008470248974815755449_);}
	.st57{fill:url(#SVGID_00000128451558789111822420000001247514491008316840_);}
	.st58{fill:url(#SVGID_00000059996380734791783380000000764954412777498547_);}
	.st59{fill:url(#SVGID_00000069367888380585704780000004272366328866232763_);}
	.st60{fill:url(#SVGID_00000178909436958040260710000007987279872042412185_);}
	.st61{fill:url(#SVGID_00000060014548305033993860000000727585416086063502_);}
	.st62{fill:url(#SVGID_00000058551142239971472060000018362426368864347062_);}
	.st63{fill:url(#SVGID_00000009575964903376487480000014808302529735883904_);}
	.st64{fill:url(#SVGID_00000065061486765687406560000003606917985645864369_);}
	.st65{fill:url(#SVGID_00000006678091219605804670000000388305246270626489_);}
	.st66{fill:url(#SVGID_00000030458032533128203750000009902508193921646504_);}
	.st67{fill:url(#SVGID_00000002379987178942547820000014109176850830527382_);}
	.st68{fill:url(#SVGID_00000121274359696943971480000015241888018935787667_);}
	.st69{fill:url(#SVGID_00000047762161997632715520000012064957022809041584_);}
	.st70{fill:url(#SVGID_00000111180919979282063280000008472303815201182342_);}
	.st71{fill:url(#SVGID_00000072991911509850184240000007148243057794993338_);}
	.st72{fill:url(#SVGID_00000157275876636538139960000014978238960039812500_);}
	.st73{fill:url(#SVGID_00000166642316296580233360000006340319577108389250_);}
	.st74{fill:url(#SVGID_00000134237934847655617750000017206715715751457411_);}
	.st75{fill:url(#SVGID_00000057859077099581476620000002800152346990258363_);}
	.st76{fill:url(#SVGID_00000059991628246238789370000006771264415599705014_);}
	.st77{fill:url(#SVGID_00000133524423102214373900000013787654164506633645_);}
	.st78{fill:url(#SVGID_00000036231644416296188600000009130654180746718339_);}
	.st79{fill:url(#SVGID_00000098196694722289086200000010113727503859383961_);}
</style>
<linearGradient id="SVGID_1_" gradientUnits="userSpaceOnUse" x1="-110.5023" y1="-101.55" x2="1071.8737" y2="386.5238">
	<stop  offset="0" style="stop-color:#EF4136"/>
	<stop  offset="0.8514" style="stop-color:#BE1E2D"/>
</linearGradient>
<rect x="-11.6" y="-13.5" class="st0" width="1028.2" height="330"/>
<g>
	<g>
		<path class="st38" d="M330,214.8l-3.8-26l-0.4-2.8l-2.5-17.3c-1.1-7.5-7.1-12.2-15.5-12.2h-20.1h-31.7h-9.7c0,0-25,1.3-38.1-6.7
			l0,0c-0.2-0.1-0.5-0.3-0.7-0.4c-3.2-2-5.5-4.8-7.1-7.4c-1.2-2-2-3.9-2.5-5.4h13.8c1,0,2.1,0,3.2,0c10.3,0,29.3,0,41.6,0
			c2.2,0,4.4,0,6.6,0c3.5,0,6.8,0,10,0.1c2.7,0.1,5,0.2,7,0.3c2.6,0.1,4.6,0.2,5.8,0.3c0.8,0,1.3,0.1,1.4,0.1c0.1,0,0.1,0,0.2,0
			l-0.8-0.9l-6.4-7.1c-5-5.5-11.9-9.3-20-10.9c-3.1-0.6-6.4-1-9.9-1h-2.4h-58.5c-0.4,0-0.9,0.5-0.9,0.9l2.5,26.9
			c0,0,1.9-0.2,3.3,0.1c4.6,0.7,7.4,4.8,8.2,11c0.4-0.1,1.1-0.2,1.9-0.3c3.6-0.4,10.5-0.7,17.2,2c5.7,2.3,11.2,6.8,14.3,15.3
			c1.2,2.8,2.3,4.9,3.6,6.5c0.3,0.4-0.2,1.1-0.8,1.1l-13.2,0l-0.6,0l-6.5-0.3c-0.1-0.1-0.3-0.2-0.4-0.3l-1.8-13.6
			c-0.4-2.6-2.2-4.5-4.8-5c-1.2-0.2-2.8,0.9-3,2.2l-1,6.4l-2.9,17.8c-0.2,1.5,0.7,2.5,2.2,2.5h2.9c1.4,0,3.1-0.8,4.2-2.1l3.4-3.7
			c0.2-0.2,0.3-0.3,0.4-0.5h34.2h6.4h50.3h10.9c-0.5,0.6-1.2,1.1-1.8,1.8c-0.4,0.3-0.8,0.7-1.2,1c0,0-12.1,12.2-35.3,12.2
			c-20.2,0-71.8,0-84.7,0l3.8,39.1h115.7c7.9,0,16-8.3,15-15.4L330,214.8z M285.4,136.5C285.4,136.5,285.4,136.5,285.4,136.5h-0.1
			H285.4z"/>
		<g>
			<path class="st38" d="M285.3,136.5l0.2,0.1c0,0,0,0,0-0.1H285.3z"/>
			<path class="st38" d="M133.4,166.5c1,0,2-0.4,2.8-1c1-0.7,1.8-1.6,2.2-2.7c0.7-2-0.3-3.7-2.3-3.7c-2,0-4.3,1.6-5,3.7
				c-0.4,1.1-0.3,2,0.2,2.7C131.8,166.1,132.5,166.5,133.4,166.5z"/>
			<path class="st38" d="M313.8,104l34.1-42.3H299h-4.2l-40.9,50.7c3.3,0.1,6.2,0.5,8.5,0.9l0,0c0.5,0.1,1,0.2,1.5,0.3
				c1,0.2,1.9,0.4,2.6,0.6c0,0,0.1,0,0.1,0c1.7,0.4,2.6,0.8,2.6,0.8l-0.1,0c6.4,2.2,11.9,5.7,16.1,10.4l10,11.1l1.7,1.9
				c10,1.5,20.9,6.9,24.2,13.1l-0.8-5.3L313.8,104z"/>
			<path class="st38" d="M215.4,61.7h-20h-22.1c-6.4,0-12.5,2.9-16.5,7.8l-22.8,27.6l5.6,56.4c4.4,0.7,6.5,4.6,4.7,9.4
				c-1.8,4.9-7.3,9.1-12.4,9.3c-5.5,0.3-8.4-4.1-6.5-9.4c0.7-2,2.1-3.9,3.7-5.4l-2.3-26.1l-0.3-3l-1.8-19.9l-107,129.9h31.7h17.5
				h10.4h44h11.7h8.6l23.7-29h-56.8l8.2-10.1h43.6h8.2h5h13.4h0c0,0.1,0,0.1,0,0c0.1-0.1,0.4-0.7,0.8-1.5c2.7-4.6,5.2-9.8,7.2-15.2
				c6.8-18.5,5.3-33.6-3.1-33.6c-8.5,0-20.8,15-27.6,33.6c-1,2.8-1.8,5.5-2.5,8.1l-0.1,0H151H88.8l8.2-10.1h60.8
				c3.4-8.7,7.7-16.5,12.6-22.7c7.3-9,14.2-11.5,14.2-11.5l-1.3-24.4c0,0,0,0,0,0c0-0.6-0.4-1.1-0.9-1.3c-1.8-0.9-7-2.6-17.5-1.1
				c-6.8,1-15.1,3.5-22.9,7.6l-0.2-2.6c0.1-0.1,0.2-0.1,0.3-0.2c2.4-1.5,20.9-12,50.3-12h0.8h0.2h2.5h8.9h10.7h2.9h24.9l40.8-50.6
				H215.4z M147.2,128.5C147.2,128.5,147.2,128.4,147.2,128.5L147.2,128.5c5.8-2.4,16.9-5.8,28.9-5.3l1.1,17.5l-1.6,0.5l-0.2-2.3
				c-0.4-3.6-3.3-5.9-7.3-5.7c-4.9,0.2-9,0.7-10.1,2.6c-2,3.4,0.8,5.6,3.3,7l-1.2,1c0,0,0,0,0,0l-16.9-1.5c0,0,0,0,0,0l-0.9-11.4
				L147.2,128.5C147.2,128.5,147.2,128.5,147.2,128.5z"/>
		</g>
	</g>
	<g>
		<g>
			<path class="st38" d="M390.4,70.9h36.8c2.2,0,3.6,3.9,4.2,11.6l18.2,92.1c-0.2,0.9-0.9,1.4-2.1,1.4h-21.7c-1.9,0-3-2.8-3.5-8.4
				c-1.5-10.1-2.7-15.6-3.5-16.5H408h-9.1c-0.9,0-2.4,7.8-4.6,23.5l-1.4,1.4h-23.8L368,175c6.8-34.2,11.8-61.3,15.1-81.3l4.6-21.4
				C388.6,71.4,389.6,70.9,390.4,70.9z M399.5,131.5l0.4,0.4h13.3l0.7-0.7l-6.7-37.1l-0.4-0.4h-0.4c-1.1,0-2.1,4.1-3.2,12.3
				C400.8,120,399.5,128.6,399.5,131.5z"/>
			<path class="st38" d="M502.7,70.9c7.2,1.2,12.4,3.5,15.6,6.9c2.2,3.5,3.3,7.8,3.3,12.8l0.3,62.7c-0.3,5.1-2.5,10.1-6.7,15.1
				c-5.1,4.9-10.5,7.5-16.1,7.7h-44.1c-0.7,0-1.4-0.9-2.1-2.8V74.8c0-2.6,0.8-3.9,2.5-3.9H502.7z M477.9,90.2v65.2
				c0,0.7,0.5,1.1,1.4,1.1h10.9c4.5,0,6.8-1.6,7-4.9V95.1c0-3.5-3-5.2-8.8-4.9H477.9z"/>
			<path class="st38" d="M547.7,70.9h36.8c2.2,0,3.6,3.9,4.2,11.6l18.2,92.1c-0.2,0.9-0.9,1.4-2.1,1.4h-21.7c-1.9,0-3-2.8-3.5-8.4
				c-1.5-10.1-2.7-15.6-3.5-16.5h-10.9h-9.1c-0.9,0-2.4,7.8-4.6,23.5l-1.4,1.4h-23.8l-1.1-1.1c6.8-34.2,11.8-61.3,15.1-81.3
				l4.6-21.4C545.9,71.4,546.9,70.9,547.7,70.9z M556.9,131.5l0.4,0.4h13.3l0.7-0.7l-6.7-37.1l-0.4-0.4h-0.4
				c-1.1,0-2.1,4.1-3.2,12.3C558.1,120,556.9,128.6,556.9,131.5z"/>
			<path class="st38" d="M628.9,70.9h44.8l1.1,1.1v16.5c0,1.3-0.5,2.1-1.4,2.5h-31.9c-3.7,1.1-5.6,3.1-5.6,6v7.4
				c0,3.9,3.5,6.3,10.5,7.4c1.8,0,9.1,1.8,22.1,5.3c6.3,3.8,9.5,10.1,9.5,18.9v14.7c0,11.5-5,19.5-15.1,23.8l-8.8,1.8h-39.6
				c-1.3,0-2.3-0.7-3.2-2.1v-17.5l2.1-1.8l2.5,0.4h30.8c3.7-0.7,5.6-2.6,5.6-5.6v-8.8c0-3.2-1.5-5.3-4.6-6.3
				c-21-4.4-31.5-7.6-31.5-9.5c-4-3.4-6-8.8-6-16.1V93.7c0-9.6,4.8-16.7,14.4-21.4L628.9,70.9z"/>
			<path class="st38" d="M704.4,70.9h44.8l1.1,1.1v16.5c0,1.3-0.5,2.1-1.4,2.5H717c-3.7,1.1-5.6,3.1-5.6,6v7.4
				c0,3.9,3.5,6.3,10.5,7.4c1.8,0,9.1,1.8,22.1,5.3c6.3,3.8,9.5,10.1,9.5,18.9v14.7c0,11.5-5,19.5-15.1,23.8l-8.8,1.8H690
				c-1.3,0-2.3-0.7-3.2-2.1v-17.5l2.1-1.8l2.5,0.4h30.8c3.7-0.7,5.6-2.6,5.6-5.6v-8.8c0-3.2-1.5-5.3-4.6-6.3
				c-21-4.4-31.5-7.6-31.5-9.5c-4-3.4-6-8.8-6-16.1V93.7c0-9.6,4.8-16.7,14.4-21.4L704.4,70.9z"/>
			<path class="st38" d="M779.2,70.9H816c2.2,0,3.6,3.9,4.2,11.6l18.2,92.1c-0.2,0.9-0.9,1.4-2.1,1.4h-21.7c-1.9,0-3-2.8-3.5-8.4
				c-1.5-10.1-2.7-15.6-3.5-16.5h-10.9h-9.1c-0.9,0-2.4,7.8-4.6,23.5l-1.4,1.4h-23.8l-1.1-1.1c6.8-34.2,11.8-61.3,15.1-81.3
				l4.6-21.4C777.4,71.4,778.3,70.9,779.2,70.9z M788.3,131.5l0.4,0.4H802l0.7-0.7L796,94.1l-0.4-0.4h-0.4c-1.1,0-2.1,4.1-3.2,12.3
				C789.6,120,788.3,128.6,788.3,131.5z"/>
			<path class="st38" d="M843.1,70.9h69c1.4,0,2.1,0.9,2.1,2.8v16.5c0,2.1-1.1,3.2-3.2,3.2h-38.9l-1.1,1.1v18.9
				c0,0.8,0.4,1.5,1.1,2.1h4.2h25.9c0.9,0.4,1.4,1.2,1.4,2.5v18.2c0,1.6-0.8,2.5-2.5,2.5h-29.4l-0.7,0.7V175l-1.1,1.1h-27
				c-0.7,0-1.2-1.6-1.4-4.9l0.3-97l-0.3-0.4v-0.4C842.2,71.8,842.6,70.9,843.1,70.9z"/>
			<path class="st38" d="M919,70.9h60.6l1.1,1.1v15.8c0,1.6-0.8,2.5-2.4,2.5h-34.7c-1.4,0-2.1,0.7-2.1,2.1v18.2l1.1,1.1h29.4
				c2.1,0,3.2,0.8,3.2,2.5v15.1c0,1.4-0.7,2.1-2.1,2.1h-29.4c-1.4,0-2.1,0.7-2.1,2.1v17.5c0,4,3,6,9.1,6h29.4c1.6,0,2.5,0.8,2.5,2.5
				V175l-1.1,1.1h-45.2c-6.7-1.8-11.7-5.3-15.1-10.5c-2.3-4.7-3.5-9.3-3.5-13.7V75.1C917.6,72.3,918.1,70.9,919,70.9z"/>
		</g>
		<g>
			<path class="st38" d="M374.7,199.4h12.6l0.3,0.3v4.6c0,0.4-0.1,0.6-0.4,0.7h-9c-1.1,0.3-1.6,0.9-1.6,1.7v2.1c0,1.1,1,1.8,3,2.1
				c0.5,0,2.6,0.5,6.2,1.5c1.8,1.1,2.7,2.8,2.7,5.3v4.1c0,3.3-1.4,5.5-4.2,6.7l-2.5,0.5h-11.2c-0.4,0-0.7-0.2-0.9-0.6v-4.9l0.6-0.5
				l0.7,0.1h8.7c1.1-0.2,1.6-0.7,1.6-1.6v-2.5c0-0.9-0.4-1.5-1.3-1.8c-5.9-1.3-8.9-2.1-8.9-2.7c-1.1-1-1.7-2.5-1.7-4.5v-4.2
				c0-2.7,1.3-4.7,4.1-6L374.7,199.4z"/>
			<path class="st38" d="M401.9,199.4h10.4c0.6,0,1,1.1,1.2,3.3l5.1,26c-0.1,0.3-0.3,0.4-0.6,0.4h-6.1c-0.5,0-0.9-0.8-1-2.4
				c-0.4-2.8-0.8-4.4-1-4.6h-3.1h-2.6c-0.3,0-0.7,2.2-1.3,6.6l-0.4,0.4h-6.7l-0.3-0.3c1.9-9.7,3.3-17.3,4.2-22.9l1.3-6
				C401.4,199.5,401.6,199.4,401.9,199.4z M404.5,216.5L404.5,216.5l3.9,0.1l0.2-0.2l-1.9-10.5l-0.1-0.1h-0.1
				c-0.3,0-0.6,1.2-0.9,3.5C404.8,213.3,404.5,215.7,404.5,216.5z"/>
			<path class="st38" d="M426,199.4h19.5c0.4,0,0.6,0.3,0.6,0.8v4.6c0,0.6-0.3,0.9-0.9,0.9h-11l-0.3,0.3v5.3c0,0.2,0.1,0.4,0.3,0.6
				h1.2h7.3c0.3,0.1,0.4,0.3,0.4,0.7v5.1c0,0.5-0.2,0.7-0.7,0.7h-8.3l-0.2,0.2v10.1l-0.3,0.3H426c-0.2,0-0.3-0.5-0.4-1.4l0.1-27.4
				l-0.1-0.1v-0.1C425.7,199.6,425.9,199.4,426,199.4z"/>
			<path class="st38" d="M453.5,199.4h17.1l0.3,0.3v4.4c0,0.5-0.2,0.7-0.7,0.7h-9.8c-0.4,0-0.6,0.2-0.6,0.6v5.1l0.3,0.3h8.3
				c0.6,0,0.9,0.2,0.9,0.7v4.2c0,0.4-0.2,0.6-0.6,0.6h-8.3c-0.4,0-0.6,0.2-0.6,0.6v4.9c0,1.1,0.9,1.7,2.6,1.7h8.3
				c0.5,0,0.7,0.2,0.7,0.7v4.4l-0.3,0.3h-12.7c-1.9-0.5-3.3-1.5-4.2-3c-0.7-1.3-1-2.6-1-3.9v-21.6
				C453.1,199.8,453.2,199.4,453.5,199.4z"/>
			<path class="st38" d="M479.1,199.4h18.7l0.3,0.3l0,4.6c-0.1,0.5-0.3,0.8-0.7,0.8h-4.8c-0.5,0-0.7,0.2-0.7,0.7v22.4
				c0,0.5-0.2,0.8-0.6,0.8h-5.9c-0.5,0-0.7-0.3-0.7-1v-17.9v-4.6l-0.6-0.4h-4.7c-0.7,0-1-0.2-1-0.5v-4.2v-0.3
				C478.4,199.6,478.7,199.4,479.1,199.4z"/>
			<path class="st38" d="M505,199.4h7.3c0.5,0,1.2,1.1,2.3,3.3l3.2,5.1h0.2c3.1-5.5,4.7-8.3,4.8-8.3l0.4-0.1h7.3v0.3
				c-6.1,10.5-9.2,16-9.3,16.3v12.7l-0.3,0.3h-6.3l-0.3-0.3V216c-0.1-0.5-3.2-5.9-9.3-16.3V199.4z"/>
			<path class="st38" d="M578,199.4h12.6l0.3,0.3v4.6c0,0.4-0.1,0.6-0.4,0.7h-9c-1.1,0.3-1.6,0.9-1.6,1.7v2.1c0,1.1,1,1.8,3,2.1
				c0.5,0,2.6,0.5,6.2,1.5c1.8,1.1,2.7,2.8,2.7,5.3v4.1c0,3.3-1.4,5.5-4.2,6.7l-2.5,0.5H574c-0.4,0-0.7-0.2-0.9-0.6v-4.9l0.6-0.5
				l0.7,0.1h8.7c1.1-0.2,1.6-0.7,1.6-1.6v-2.5c0-0.9-0.4-1.5-1.3-1.8c-5.9-1.3-8.9-2.1-8.9-2.7c-1.1-1-1.7-2.5-1.7-4.5v-4.2
				c0-2.7,1.3-4.7,4.1-6L578,199.4z"/>
			<path class="st38" d="M605.6,199.4h11.2c0.6,0,0.9,0.4,0.9,1.1v4.1c0,0.7-0.4,1.1-1.1,1.1h-9.3c-0.5,0-0.8,0.2-0.8,0.8l0,15.3
				c0.1,0.6,0.4,1,1,1.1h9.3c0.6,0,0.9,0.2,0.9,0.7v4.6c0,0.5-0.2,0.8-0.6,0.8h-12.6c-1.3-0.3-2.5-1-3.7-2.1c-1.3-1.4-1.9-3-1.9-5
				l0-15.6l0-0.5c0-1.4,0.6-2.8,1.9-4.3c1.5-1.3,3-2,4.5-2L605.6,199.4z"/>
			<path class="st38" d="M625,199.4h13.4c1.7,0.4,3.1,1.3,4.1,2.6c0.8,0.9,1.2,2.5,1.2,4.9v2.3c0,2.3-0.4,3.7-1.2,4.4l-0.4,0.5v0.2
				c1.1,1.1,1.7,2.5,1.7,4.3v9.8c-0.2,0.4-0.4,0.6-0.8,0.6h-5.5c-0.5,0-0.8-0.3-0.8-0.9v-9.6c-0.2-1.1-0.8-1.7-1.7-1.7h-2.8
				l-0.4,0.4V228c0,0.7-0.3,1.1-0.8,1.1h-5.6c-0.4,0-0.6-0.3-0.8-0.9l-0.1-28.5L625,199.4z M631.9,205.4v5.8l0.3,0.3h3.1
				c0.8,0,1.3-0.6,1.5-1.8v-3.2c-0.2-1.1-0.9-1.6-2-1.6h-2.5L631.9,205.4z"/>
			<path class="st38" d="M651.5,199.4h6.1c0.3,0.1,0.4,0.4,0.4,0.9l-0.1,21.4c0.3,1.1,0.9,1.6,1.7,1.6h2c0.5,0,1-0.4,1.5-1.2v-21.8
				c0-0.5,0.1-0.8,0.4-0.9h6.1c0.5,0,0.7,0.3,0.7,0.8v22.1c0,2.5-1.2,4.4-3.5,5.9l-2.3,0.8h-8.1c-2.2-0.6-3.7-1.6-4.5-3
				c-0.3,0-0.6-1.2-1-3.6l-0.1-22.4C650.9,199.6,651.2,199.4,651.5,199.4z"/>
			<path class="st38" d="M678,199.4h18.7l0.3,0.3l0,4.6c-0.1,0.5-0.3,0.8-0.7,0.8h-4.8c-0.5,0-0.7,0.2-0.7,0.7v22.4
				c0,0.5-0.2,0.8-0.6,0.8h-5.9c-0.5,0-0.7-0.3-0.7-1v-17.9v-4.6l-0.6-0.4h-4.7c-0.7,0-1-0.2-1-0.5v-4.2v-0.3
				C677.4,199.6,677.6,199.4,678,199.4z"/>
			<path class="st38" d="M704.4,199.4h6.3c0.3,0.1,0.4,0.4,0.4,0.9v28.5l-0.3,0.3h-6.4c-0.3-0.1-0.4-0.4-0.4-0.9v-27.9
				C704,199.8,704.1,199.5,704.4,199.4z"/>
			<path class="st38" d="M718.4,199.4h9.5c0.4,0.3,1.3,2.7,2.7,7.1l3.3,9.7h0.3l0-16c0.1-0.5,0.3-0.8,0.4-0.8h6.7l0.3,0.3v29
				l-0.3,0.3h-9.2c-0.4,0-0.7-0.5-0.9-1.4l-5.2-15.5h-0.3v0.9v15.2c0,0.5-0.2,0.8-0.6,0.8h-6.6l-0.3-0.3v-29L718.4,199.4z"/>
			<path class="st38" d="M748.6,199.4h7.3c0.5,0,1.2,1.1,2.3,3.3l3.2,5.1h0.2c3.1-5.5,4.7-8.3,4.8-8.3l0.4-0.1h7.3v0.3
				c-6.1,10.5-9.2,16-9.3,16.3v12.7l-0.3,0.3h-6.3l-0.3-0.3V216c-0.1-0.5-3.2-5.9-9.3-16.3V199.4z"/>
			<path class="st38" d="M821.5,199.4h12.6l0.3,0.3v4.6c0,0.4-0.1,0.6-0.4,0.7h-9c-1.1,0.3-1.6,0.9-1.6,1.7v2.1c0,1.1,1,1.8,3,2.1
				c0.5,0,2.6,0.5,6.2,1.5c1.8,1.1,2.7,2.8,2.7,5.3v4.1c0,3.3-1.4,5.5-4.2,6.7l-2.5,0.5h-11.2c-0.4,0-0.7-0.2-0.9-0.6v-4.9l0.6-0.5
				l0.7,0.1h8.7c1.1-0.2,1.6-0.7,1.6-1.6v-2.5c0-0.9-0.4-1.5-1.3-1.8c-5.9-1.3-8.9-2.1-8.9-2.7c-1.1-1-1.7-2.5-1.7-4.5v-4.2
				c0-2.7,1.3-4.7,4.1-6L821.5,199.4z"/>
			<path class="st38" d="M842.8,199.4h17.1l0.3,0.3v4.4c0,0.5-0.2,0.7-0.7,0.7h-9.8c-0.4,0-0.6,0.2-0.6,0.6v5.1l0.3,0.3h8.3
				c0.6,0,0.9,0.2,0.9,0.7v4.2c0,0.4-0.2,0.6-0.6,0.6h-8.3c-0.4,0-0.6,0.2-0.6,0.6v4.9c0,1.1,0.9,1.7,2.6,1.7h8.3
				c0.5,0,0.7,0.2,0.7,0.7v4.4l-0.3,0.3h-12.7c-1.9-0.5-3.3-1.5-4.2-3c-0.7-1.3-1-2.6-1-3.9v-21.6
				C842.4,199.8,842.5,199.4,842.8,199.4z"/>
			<path class="st38" d="M868,199.4h13.4c1.7,0.4,3.1,1.3,4.1,2.6c0.8,0.9,1.2,2.5,1.2,4.9v2.3c0,2.3-0.4,3.7-1.2,4.4l-0.4,0.5v0.2
				c1.1,1.1,1.7,2.5,1.7,4.3v9.8c-0.2,0.4-0.4,0.6-0.8,0.6h-5.5c-0.5,0-0.8-0.3-0.8-0.9v-9.6c-0.2-1.1-0.8-1.7-1.7-1.7h-2.8
				l-0.4,0.4V228c0,0.7-0.3,1.1-0.8,1.1h-5.6c-0.4,0-0.6-0.3-0.8-0.9l-0.1-28.5L868,199.4z M874.9,205.4v5.8l0.3,0.3h3.1
				c0.8,0,1.3-0.6,1.5-1.8v-3.2c-0.2-1.1-0.9-1.6-2-1.6h-2.5L874.9,205.4z"/>
			<path class="st38" d="M894.1,199.4h6.1c0.3,0,0.9,2.8,1.9,8.5l2.6,12.7l0.1,0.1h0.2c0.3,0,0.7-1.6,1.2-4.7
				c1.6-8.9,2.7-14.4,3.3-16.5l0.4-0.1h5.8l0.2,0.2v0.1l-5.2,25.4c-0.5,2.6-0.9,4-1.2,4h-9c-0.3,0-0.9-2.2-1.7-6.6
				c-2.2-9.9-3.9-17.4-4.9-22.6v-0.1L894.1,199.4z"/>
			<path class="st38" d="M923.3,199.4h6.3c0.3,0.1,0.4,0.4,0.4,0.9v28.5l-0.3,0.3h-6.4c-0.3-0.1-0.4-0.4-0.4-0.9v-27.9
				C922.9,199.8,923,199.5,923.3,199.4z"/>
			<path class="st38" d="M943.8,199.4h11.2c0.6,0,0.9,0.4,0.9,1.1v4.1c0,0.7-0.4,1.1-1.1,1.1h-9.3c-0.5,0-0.8,0.2-0.8,0.8l0,15.3
				c0.1,0.6,0.4,1,1,1.1h9.3c0.6,0,0.9,0.2,0.9,0.7v4.6c0,0.5-0.2,0.8-0.6,0.8h-12.6c-1.3-0.3-2.5-1-3.7-2.1c-1.3-1.4-1.9-3-1.9-5
				l0-15.6l0-0.5c0-1.4,0.6-2.8,1.9-4.3c1.5-1.3,3-2,4.5-2L943.8,199.4z"/>
			<path class="st38" d="M963.2,199.4h17.1l0.3,0.3v4.4c0,0.5-0.2,0.7-0.7,0.7h-9.8c-0.4,0-0.6,0.2-0.6,0.6v5.1l0.3,0.3h8.3
				c0.6,0,0.9,0.2,0.9,0.7v4.2c0,0.4-0.2,0.6-0.6,0.6h-8.3c-0.4,0-0.6,0.2-0.6,0.6v4.9c0,1.1,0.9,1.7,2.6,1.7h8.3
				c0.5,0,0.7,0.2,0.7,0.7v4.4l-0.3,0.3h-12.7c-1.9-0.5-3.3-1.5-4.2-3c-0.7-1.3-1-2.6-1-3.9v-21.6
				C962.8,199.8,963,199.4,963.2,199.4z"/>
		</g>
		<circle class="st38" cx="550.2" cy="214.8" r="6.7"/>
		<circle class="st38" cx="795.5" cy="214.8" r="6.7"/>
	</g>
</g>
</svg>
