<svg width="24" height="24" viewBox="0 0 24 24" fill="none" xmlns="http://www.w3.org/2000/svg" data-reactroot="">
<path fill="#d22b2b" d="M13.0402 4.00081C13.4963 4.01915 13.8821 4.34409 13.9778 4.79048L16.3191 15.7167L18.0809 11.6061C18.2384 11.2384 18.6 11 19 11H22C22.5523 11 23 11.4477 23 12C23 12.5523 22.5523 13 22 13H19.6594L16.9191 19.3939C16.7476 19.7942 16.3367 20.0374 15.9033 19.9953C15.4698 19.9532 15.1134 19.6354 15.0222 19.2095L12.8384 9.01865L10.9578 15.2874C10.8369 15.6903 10.4767 15.9746 10.0567 15.9984C9.63664 16.0222 9.24659 15.7806 9.08085 15.3939L6.93019 10.3757L5.89443 12.4472C5.72504 12.786 5.37877 13 5 13H2C1.44772 13 1 12.5523 1 12C1 11.4477 1.44772 11 2 11H4.38197L6.10557 7.55279C6.27971 7.20452 6.64016 6.989 7.02937 7.00044C7.41858 7.01188 7.76576 7.24819 7.91915 7.60609L9.83385 12.0737L12.0422 4.71266C12.1734 4.27539 12.584 3.98248 13.0402 4.00081Z" clip-rule="evenodd" fill-rule="evenodd" undefined="1"></path>
</svg>
