<svg width="24" height="24" viewBox="0 0 24 24" fill="none" xmlns="http://www.w3.org/2000/svg" data-reactroot="">
<path stroke-linejoin="round" stroke-linecap="round" stroke-miterlimit="10" stroke-width="1" stroke="#d22b2b" fill="none" d="M17.29 2.29L21.7 6.7C21.89 6.89 22 7.15 22 7.41V21C22 21.55 21.55 22 21 22H3C2.45 22 2 21.55 2 21V3C2 2.45 2.45 2 3 2H16.59C16.85 2 17.11 2.11 17.29 2.29Z"></path>
<path stroke-linejoin="round" stroke-linecap="round" stroke-miterlimit="10" stroke-width="1" stroke="#d22b2b" d="M7 17H17"></path>
<path stroke-linejoin="round" stroke-linecap="round" stroke-miterlimit="10" stroke-width="1" stroke="#d22b2b" d="M7 12H17"></path>
<path stroke-linejoin="round" stroke-linecap="round" stroke-miterlimit="10" stroke-width="1" stroke="#d22b2b" d="M7 7H12"></path>
<path stroke-linejoin="round" stroke-linecap="round" stroke-miterlimit="10" stroke-width="1" stroke="#d22b2b" fill="none" d="M16 2V8H22V7.41C22 7.15 21.89 6.89 21.71 6.71L17.29 2.29C17.11 2.11 16.85 2 16.59 2H16Z"></path>
</svg>
