<svg width="24" height="24" viewBox="0 0 24 24" fill="none" xmlns="http://www.w3.org/2000/svg" data-reactroot="">
<path fill="#d22b2b" d="M21.7545 14.2243C21.8784 13.6861 21.5425 13.1494 21.0043 13.0255C20.4661 12.9016 19.9293 13.2374 19.8054 13.7757C19.2633 16.1307 17.6891 18.0885 15.5897 19.1471C14.5148 19.6889 13.2886 20 11.9999 20C9.44375 20 7.49521 18.8312 5.64918 16.765L8.41421 14H2V20.4142L4.23319 18.181C6.29347 20.4573 8.71647 22 11.9999 22C13.6113 22 15.145 21.611 16.4901 20.9329L16.4902 20.9329C19.1108 19.6115 21.0766 17.1692 21.7545 14.2243Z" clip-rule="evenodd" fill-rule="evenodd" undefined="1"></path>
<path fill="#d22b2b" d="M2.24553 9.77546C2.12164 10.3137 2.45752 10.8504 2.99573 10.9743C3.53394 11.0982 4.07067 10.7623 4.19456 10.2241C4.73668 7.86902 6.31094 5.91126 8.41029 4.85269C9.48518 4.31081 10.7114 3.99978 12.0001 3.99978C14.5563 3.99978 16.5048 5.16858 18.3508 7.23472L15.5858 9.99976H22V3.58554L19.7668 5.81873C17.7065 3.54248 15.2835 1.99978 12.0001 1.99978C10.3887 1.99978 8.85498 2.38873 7.50989 3.06683L7.50981 3.06687C4.88916 4.3883 2.92342 6.83054 2.24553 9.77546Z" clip-rule="evenodd" fill-rule="evenodd" undefined="1"></path>
</svg>
