<svg width="24" height="24" viewBox="0 0 24 24" fill="none" xmlns="http://www.w3.org/2000/svg" data-reactroot="">
<path fill="none" d="M13.87 4.89L13.56 2.44C13.53 2.19 13.32 2 13.06 2H9.95C9.7 2 9.48 2.19 9.45 2.44L9.18 4.59C9.16 4.77 9.03 4.93 8.86 4.99C8.02 5.3 7.22 5.78 6.53 6.4L4.25 5.44C4.02 5.34 3.75 5.43 3.62 5.65L2.06 8.35C1.94 8.57 2 8.85 2.2 9L4.17 10.49C3.96 11.5 3.96 12.53 4.16 13.51H4.17L2.2 15C2 15.15 1.94 15.43 2.07 15.65L3.63 18.35C3.76 18.57 4.03 18.66 4.26 18.56L6.54 17.6L6.53 17.61C6.9 17.94 7.32 18.24 7.77 18.5C8.22 18.76 8.68 18.97 9.16 19.13V19.11L9.47 21.56C9.48 21.81 9.7 22 9.95 22H13.07C13.32 22 13.53 21.81 13.57 21.56L13.84 19.41C13.86 19.23 13.99 19.07 14.16 19.01C15 18.7 15.8 18.22 16.49 17.6L18.77 18.56C19 18.66 19.27 18.57 19.4 18.35L20.96 15.65C21.09 15.43 21.03 15.15 20.83 15L18.86 13.51C19.07 12.5 19.07 11.47 18.87 10.49H18.86L20.81 9C21.01 8.85 21.07 8.57 20.94 8.35L19.38 5.65C19.25 5.43 18.98 5.34 18.75 5.44L16.48 6.4L16.49 6.39C16.12 6.06 15.7 5.76 15.25 5.5C14.8 5.24 14.34 5.03 13.86 4.87" clip-rule="evenodd" fill-rule="evenodd" undefined="1"></path>
<path stroke-linejoin="round" stroke-linecap="round" stroke-miterlimit="10" stroke-width="1" stroke="#d22b2b" d="M13.87 4.89L13.56 2.44C13.53 2.19 13.32 2 13.06 2H9.95C9.7 2 9.48 2.19 9.45 2.44L9.18 4.59C9.16 4.77 9.03 4.93 8.86 4.99C8.02 5.3 7.22 5.78 6.53 6.4L4.25 5.44C4.02 5.34 3.75 5.43 3.62 5.65L2.06 8.35C1.94 8.57 2 8.85 2.2 9L4.17 10.49C3.96 11.5 3.96 12.53 4.16 13.51H4.17L2.2 15C2 15.15 1.94 15.43 2.07 15.65L3.63 18.35C3.76 18.57 4.03 18.66 4.26 18.56L6.54 17.6L6.53 17.61C6.9 17.94 7.32 18.24 7.77 18.5C8.22 18.76 8.68 18.97 9.16 19.13V19.11L9.47 21.56C9.48 21.81 9.7 22 9.95 22H13.07C13.32 22 13.53 21.81 13.57 21.56L13.84 19.41C13.86 19.23 13.99 19.07 14.16 19.01C15 18.7 15.8 18.22 16.49 17.6L18.77 18.56C19 18.66 19.27 18.57 19.4 18.35L20.96 15.65C21.09 15.43 21.03 15.15 20.83 15L18.86 13.51C19.07 12.5 19.07 11.47 18.87 10.49H18.86L20.81 9C21.01 8.85 21.07 8.57 20.94 8.35L19.38 5.65C19.25 5.43 18.98 5.34 18.75 5.44L16.48 6.4L16.49 6.39C16.12 6.06 15.7 5.76 15.25 5.5C14.8 5.24 14.34 5.03 13.86 4.87"></path>
<path stroke-linejoin="round" stroke-linecap="round" stroke-miterlimit="10" stroke-width="1" stroke="#d22b2b" fill="none" d="M11.51 16C13.7191 16 15.51 14.2091 15.51 12C15.51 9.79086 13.7191 8 11.51 8C9.30086 8 7.51 9.79086 7.51 12C7.51 14.2091 9.30086 16 11.51 16Z"></path>
</svg>
