<svg width="24" height="24" viewBox="0 0 24 24" fill="none" xmlns="http://www.w3.org/2000/svg" data-reactroot="">
<path fill="#d22b2b" d="M3.29289 3.29289C3.68342 2.90237 4.31658 2.90237 4.70711 3.29289L6.70711 5.29289C7.09763 5.68342 7.09763 6.31658 6.70711 6.70711C6.31658 7.09763 5.68342 7.09763 5.29289 6.70711L3.29289 4.70711C2.90237 4.31658 2.90237 3.68342 3.29289 3.29289Z" clip-rule="evenodd" fill-rule="evenodd" undefined="1"></path>
<path fill="#d22b2b" d="M20.7071 3.29289C21.0976 3.68342 21.0976 4.31658 20.7071 4.70711L18.7071 6.70711C18.3166 7.09763 17.6834 7.09763 17.2929 6.70711C16.9024 6.31658 16.9024 5.68342 17.2929 5.29289L19.2929 3.29289C19.6834 2.90237 20.3166 2.90237 20.7071 3.29289Z" clip-rule="evenodd" fill-rule="evenodd" undefined="1"></path>
<path fill="#d22b2b" d="M12 2L15 9H22L17 15L19 22L12 18L5 22L7 15L2 9H9L12 2Z" undefined="1"></path>
<path fill="#d22b2b" d="M19.7056 16.3528C19.9526 15.8588 20.5533 15.6586 21.0473 15.9056L22.4473 16.6056C22.9413 16.8526 23.1415 17.4533 22.8945 17.9472C22.6475 18.4412 22.0468 18.6414 21.5529 18.3945L20.1529 17.6945C19.6589 17.4475 19.4587 16.8468 19.7056 16.3528Z" clip-rule="evenodd" fill-rule="evenodd" undefined="1"></path>
<path fill="#d22b2b" d="M4.2944 16.3528C4.54139 16.8468 4.34117 17.4475 3.84719 17.6945L2.44719 18.3945C1.95321 18.6414 1.35254 18.4412 1.10555 17.9472C0.858558 17.4533 1.05878 16.8526 1.55276 16.6056L2.95276 15.9056C3.44674 15.6586 4.04741 15.8588 4.2944 16.3528Z" clip-rule="evenodd" fill-rule="evenodd" undefined="1"></path>
</svg>
