<svg width="24" height="24" viewBox="0 0 24 24" fill="none" xmlns="http://www.w3.org/2000/svg" data-reactroot="">
<path fill="#d22b2b" d="M18.75 9.00001H15.5C15.2239 9.00001 15 8.77616 15 8.50001V5.25001C15 5.11741 15.0527 4.99023 15.1464 4.89646L17.6464 2.39646C17.7894 2.25346 18.0045 2.21068 18.1913 2.28807C18.3782 2.36547 18.5 2.54778 18.5 2.75001V5.50001H21.25C21.4522 5.50001 21.6345 5.62184 21.7119 5.80867C21.7893 5.99551 21.7466 6.21057 21.6036 6.35357L19.1036 8.85357C19.0098 8.94734 18.8826 9.00001 18.75 9.00001Z" clip-rule="evenodd" fill-rule="evenodd" undefined="1"></path>
<path fill="#d22b2b" d="M12 3C7.02944 3 3 7.02944 3 12C3 16.9706 7.02944 21 12 21C16.9706 21 21 16.9706 21 12C21 11.4477 21.4477 11 22 11C22.5523 11 23 11.4477 23 12C23 18.0751 18.0751 23 12 23C5.92487 23 1 18.0751 1 12C1 5.92487 5.92487 1 12 1C12.5523 1 13 1.44772 13 2C13 2.55228 12.5523 3 12 3Z" clip-rule="evenodd" fill-rule="evenodd" undefined="1"></path>
<path fill="#d22b2b" d="M12 7C9.23858 7 7 9.23858 7 12C7 14.7614 9.23858 17 12 17C14.7614 17 17 14.7614 17 12C17 11.4477 17.4477 11 18 11C18.5523 11 19 11.4477 19 12C19 15.866 15.866 19 12 19C8.13401 19 5 15.866 5 12C5 8.13401 8.13401 5 12 5C12.5523 5 13 5.44772 13 6C13 6.55228 12.5523 7 12 7Z" clip-rule="evenodd" fill-rule="evenodd" undefined="1"></path>
<path fill="#d22b2b" d="M10 12C10 10.8954 10.8954 10 12 10C13.1046 10 14 10.8954 14 12C14 13.1046 13.1046 14 12 14C10.8954 14 10 13.1046 10 12Z" clip-rule="evenodd" fill-rule="evenodd" undefined="1"></path>
<path fill="#d22b2b" d="M11.2929 12.7071C11.6834 13.0976 12.3166 13.0976 12.7071 12.7071L20.7071 4.70711C21.0976 4.31658 21.0976 3.68342 20.7071 3.29289C20.3166 2.90237 19.6834 2.90237 19.2929 3.29289L11.2929 11.2929C10.9024 11.6834 10.9024 12.3166 11.2929 12.7071Z" clip-rule="evenodd" fill-rule="evenodd" undefined="1"></path>
</svg>
