<svg width="24" height="24" viewBox="0 0 24 24" fill="none" xmlns="http://www.w3.org/2000/svg" data-reactroot="">
<path fill="#d22b2b" d="M15.1272 11.6377C14.522 11.3937 13.9549 11.0264 13.4644 10.5358C12.9739 10.0453 12.6066 9.47823 12.3625 8.87305L10.3622 11.4449C8.5603 13.7616 6.34501 15.7246 3.82833 17.2346L3.1374 17.6492C1.83071 18.4332 1.60872 20.2365 2.68625 21.314C3.76377 22.3915 5.56704 22.1695 6.35105 20.8628L6.76561 20.1719C8.27562 17.6552 10.2386 15.4399 12.5553 13.6381L15.1272 11.6377Z" undefined="1"></path>
<path stroke-linejoin="round" stroke-linecap="round" stroke-width="1" stroke="white" d="M15.127 11.6377C14.5218 11.3937 13.9547 11.0264 13.4642 10.5358C12.9737 10.0453 12.6064 9.47823 12.3623 8.87305"></path>
<path fill="#d22b2b" d="M21.6556 5.17287C22.3587 6.96712 21.9853 9.08574 20.5355 10.5355C18.5829 12.4882 15.4171 12.4882 13.4645 10.5355C11.5118 8.58291 11.5118 5.41709 13.4645 3.46447C14.9143 2.01467 17.0329 1.64133 18.8271 2.34444L15.9393 5.23223C15.3536 5.81802 15.3536 6.76777 15.9393 7.35355L16.6464 8.06066C17.2322 8.64645 18.182 8.64645 18.7678 8.06066L21.6556 5.17287Z" undefined="1"></path>
</svg>
