<svg width="24" height="24" viewBox="0 0 24 24" fill="none" xmlns="http://www.w3.org/2000/svg" data-reactroot="">
<path stroke-linejoin="round" stroke-width="1" stroke="#d22b2b" fill="none" d="M21.6556 5.17287C22.3587 6.96712 21.9853 9.08574 20.5355 10.5355C18.5829 12.4882 15.4171 12.4882 13.4645 10.5355C11.5118 8.58291 11.5118 5.41709 13.4645 3.46447C14.9143 2.01467 17.0329 1.64133 18.8271 2.34444L15.9393 5.23223C15.3536 5.81802 15.3536 6.76777 15.9393 7.35355L16.6464 8.06066C17.2322 8.64645 18.182 8.64645 18.7678 8.06066L21.6556 5.17287Z"></path>
<path stroke-linejoin="round" stroke-linecap="round" stroke-width="1" stroke="#d22b2b" fill="none" d="M15.127 11.6377C14.5218 11.3937 13.9547 11.0264 13.4642 10.5358C12.9736 10.0453 12.6063 9.47823 12.3623 8.87305L10.3619 11.4449C8.56006 13.7616 6.34477 15.7246 3.82809 17.2346L3.13716 17.6492C1.83047 18.4332 1.60848 20.2365 2.686 21.314C3.76353 22.3915 5.5668 22.1695 6.35081 20.8628L6.76537 20.1719C8.27537 17.6552 10.2384 15.4399 12.5551 13.6381L15.127 11.6377Z"></path>
</svg>
